<svg width="215" height="157" viewBox="0 0 215 157" fill="none" xmlns="http://www.w3.org/2000/svg">
<rect width="215" height="157" rx="24" fill="#101010" fill-opacity="0.01"/>
<path d="M152.994 64.9929L147.174 57.4824H145.405V68.3447H147.283V60.617L153.273 68.3447H154.871V57.4824H152.994V64.9929Z" fill="#878787"/>
<path d="M165.749 57.4824H157.664V68.3447H159.573V63.9222H165.051V62.1842H159.573V59.2204H165.749V57.4824Z" fill="#878787"/>
<path d="M172.44 59.2514H175.885V57.4824H167.071V59.2514H170.516V68.3447H172.44V59.2514Z" fill="#878787"/>
<path d="M43.5117 63L41.2656 65.2461L39 63L41.2656 60.7344L43.5117 63ZM49 57.5117L52.8672 61.3789L55.1328 59.1133L49 53L42.8672 59.1328L45.1328 61.3984L49 57.5117ZM56.7343 60.7344L54.4883 63L56.7539 65.2657L59.0195 63L56.7343 60.7344ZM49 68.4882L45.1328 64.6016L42.8672 66.8672L49 73L55.1328 66.8672L52.8672 64.6016L49 68.4882ZM49 65.2461L51.2657 62.9805L49 60.7344L46.7344 63L49 65.2461ZM72.8282 65.4805V65.4414C72.8282 63.9766 72.0468 63.2343 70.7773 62.7461C71.5586 62.3164 72.2227 61.6132 72.2227 60.3828V60.3437C72.2227 58.625 70.8359 57.5117 68.6093 57.5117H63.5118V68.4687H68.7266C71.207 68.4882 72.8282 67.4727 72.8282 65.4805ZM69.8203 60.793C69.8203 61.6132 69.1563 61.9453 68.082 61.9453H65.8555V59.6211H68.2383C69.2539 59.6211 69.8203 60.0313 69.8203 60.7539V60.793ZM70.4258 65.168C70.4258 65.9882 69.7813 66.3593 68.7266 66.3593H65.8555V63.957H68.6484C69.8789 63.957 70.4258 64.4062 70.4258 65.1484V65.168ZM77.8868 68.4882V57.5117H75.4648V68.4687H77.8868V68.4882ZM90.8555 68.4882V57.5117H88.4727V64.2695L83.3359 57.5117H81.1093V68.4687H83.4922V61.5157L88.8047 68.4882H90.8555ZM104.215 68.4882L99.5078 57.4531H97.2813L92.5743 68.4882H95.0547L96.0508 66.0273H100.68L101.676 68.4882H104.215ZM99.8203 63.8984H96.9102L98.375 60.3437L99.8203 63.8984ZM115.719 68.4882V57.5117H113.336V64.2695L108.199 57.5117H105.973V68.4687H108.356V61.5157L113.668 68.4882H115.719ZM128.16 66.7109L126.618 65.168C125.758 65.9492 124.996 66.457 123.727 66.457C121.852 66.457 120.543 64.8945 120.543 63.0195V62.9609C120.543 61.0859 121.871 59.543 123.727 59.543C124.82 59.543 125.68 60.0117 126.539 60.7734L128.082 58.9961C127.067 58 125.836 57.2969 123.766 57.2969C120.406 57.2969 118.043 59.8555 118.043 62.9609V63C118.043 66.1445 120.445 68.6445 123.668 68.6445C125.778 68.6641 127.028 67.9218 128.16 66.7109ZM138.453 68.4882V66.3398H132.496V64.0352H137.672V61.8867H132.496V59.6602H138.375V57.5117H130.113V68.4687H138.453V68.4882Z" fill="white"/>
<path opacity="0.5" d="M59.8977 105V93.3636H64.3523C65.1932 93.3636 65.892 93.4962 66.4489 93.7614C67.0095 94.0227 67.428 94.3807 67.7045 94.8352C67.9848 95.2898 68.125 95.8049 68.125 96.3807C68.125 96.8542 68.0341 97.2595 67.8523 97.5966C67.6705 97.9299 67.4261 98.2008 67.1193 98.4091C66.8125 98.6174 66.4697 98.767 66.0909 98.858V98.9716C66.5038 98.9943 66.8996 99.1212 67.2784 99.3523C67.661 99.5795 67.9735 99.9015 68.2159 100.318C68.4583 100.735 68.5795 101.239 68.5795 101.83C68.5795 102.432 68.4337 102.973 68.142 103.455C67.8504 103.932 67.411 104.309 66.8239 104.585C66.2367 104.862 65.4981 105 64.608 105H59.8977ZM62.0057 103.239H64.2727C65.0379 103.239 65.589 103.093 65.9261 102.801C66.267 102.506 66.4375 102.127 66.4375 101.665C66.4375 101.32 66.3523 101.009 66.1818 100.733C66.0114 100.453 65.7689 100.233 65.4545 100.074C65.1402 99.911 64.7652 99.8295 64.3295 99.8295H62.0057V103.239ZM62.0057 98.3125H64.0909C64.4545 98.3125 64.7822 98.2462 65.0739 98.1136C65.3655 97.9773 65.5947 97.786 65.7614 97.5398C65.9318 97.2898 66.017 96.9943 66.017 96.6534C66.017 96.2027 65.858 95.8314 65.5398 95.5398C65.2254 95.2481 64.7576 95.1023 64.1364 95.1023H62.0057V98.3125ZM70.3224 105V96.2727H72.3793V105H70.3224ZM71.3565 95.0341C71.0308 95.0341 70.7505 94.9261 70.5156 94.7102C70.2808 94.4905 70.1634 94.2273 70.1634 93.9205C70.1634 93.6098 70.2808 93.3466 70.5156 93.1307C70.7505 92.911 71.0308 92.8011 71.3565 92.8011C71.6861 92.8011 71.9664 92.911 72.1974 93.1307C72.4323 93.3466 72.5497 93.6098 72.5497 93.9205C72.5497 94.2273 72.4323 94.4905 72.1974 94.7102C71.9664 94.9261 71.6861 95.0341 71.3565 95.0341ZM76.5511 99.8864V105H74.4943V96.2727H76.4602V97.7557H76.5625C76.7633 97.267 77.0833 96.8788 77.5227 96.5909C77.9659 96.303 78.5133 96.1591 79.1648 96.1591C79.767 96.1591 80.2917 96.2879 80.7386 96.5455C81.1894 96.803 81.5379 97.1761 81.7841 97.6648C82.0341 98.1534 82.1572 98.7462 82.1534 99.4432V105H80.0966V99.7614C80.0966 99.178 79.9451 98.7216 79.642 98.392C79.3428 98.0625 78.928 97.8977 78.3977 97.8977C78.0379 97.8977 77.7178 97.9773 77.4375 98.1364C77.161 98.2917 76.9432 98.517 76.7841 98.8125C76.6288 99.108 76.5511 99.4659 76.5511 99.8864ZM86.7557 105.176C86.2027 105.176 85.7045 105.078 85.2614 104.881C84.822 104.68 84.4735 104.384 84.2159 103.994C83.9621 103.604 83.8352 103.123 83.8352 102.551C83.8352 102.059 83.9261 101.652 84.108 101.33C84.2898 101.008 84.5379 100.75 84.8523 100.557C85.1667 100.364 85.5208 100.218 85.9148 100.119C86.3125 100.017 86.7235 99.9432 87.1477 99.8977C87.6591 99.8447 88.0739 99.7973 88.392 99.7557C88.7102 99.7102 88.9413 99.642 89.0852 99.5511C89.233 99.4564 89.3068 99.3106 89.3068 99.1136V99.0795C89.3068 98.6515 89.1799 98.3201 88.9261 98.0852C88.6723 97.8504 88.3068 97.733 87.8295 97.733C87.3258 97.733 86.9261 97.8428 86.6307 98.0625C86.339 98.2822 86.142 98.5417 86.0398 98.8409L84.1193 98.5682C84.2708 98.0379 84.5208 97.5947 84.8693 97.2386C85.2178 96.8788 85.6439 96.6098 86.1477 96.4318C86.6515 96.25 87.2083 96.1591 87.8182 96.1591C88.2386 96.1591 88.6572 96.2083 89.0739 96.3068C89.4905 96.4053 89.8712 96.5682 90.2159 96.7955C90.5606 97.0189 90.8371 97.3239 91.0455 97.7102C91.2576 98.0966 91.3636 98.5795 91.3636 99.1591V105H89.3864V103.801H89.3182C89.1932 104.044 89.017 104.271 88.7898 104.483C88.5663 104.691 88.2841 104.86 87.9432 104.989C87.6061 105.114 87.2102 105.176 86.7557 105.176ZM87.2898 103.665C87.7027 103.665 88.0606 103.583 88.3636 103.42C88.6667 103.254 88.8996 103.034 89.0625 102.761C89.2292 102.489 89.3125 102.191 89.3125 101.869V100.841C89.2481 100.894 89.1383 100.943 88.983 100.989C88.8314 101.034 88.661 101.074 88.4716 101.108C88.2822 101.142 88.0947 101.172 87.9091 101.199C87.7235 101.225 87.5625 101.248 87.4261 101.267C87.1193 101.309 86.8447 101.377 86.6023 101.472C86.3598 101.566 86.1686 101.699 86.0284 101.869C85.8883 102.036 85.8182 102.252 85.8182 102.517C85.8182 102.896 85.9564 103.182 86.233 103.375C86.5095 103.568 86.8617 103.665 87.2898 103.665ZM95.4886 99.8864V105H93.4318V96.2727H95.3977V97.7557H95.5C95.7008 97.267 96.0208 96.8788 96.4602 96.5909C96.9034 96.303 97.4508 96.1591 98.1023 96.1591C98.7045 96.1591 99.2292 96.2879 99.6761 96.5455C100.127 96.803 100.475 97.1761 100.722 97.6648C100.972 98.1534 101.095 98.7462 101.091 99.4432V105H99.0341V99.7614C99.0341 99.178 98.8826 98.7216 98.5795 98.392C98.2803 98.0625 97.8655 97.8977 97.3352 97.8977C96.9754 97.8977 96.6553 97.9773 96.375 98.1364C96.0985 98.2917 95.8807 98.517 95.7216 98.8125C95.5663 99.108 95.4886 99.4659 95.4886 99.8864ZM106.989 105.17C106.117 105.17 105.369 104.979 104.744 104.597C104.123 104.214 103.644 103.686 103.307 103.011C102.973 102.333 102.807 101.553 102.807 100.67C102.807 99.7841 102.977 99.0019 103.318 98.3239C103.659 97.642 104.14 97.1117 104.761 96.733C105.386 96.3504 106.125 96.1591 106.977 96.1591C107.686 96.1591 108.313 96.2898 108.858 96.5511C109.407 96.8087 109.845 97.1742 110.17 97.6477C110.496 98.1174 110.682 98.6667 110.727 99.2955H108.761C108.682 98.875 108.492 98.5246 108.193 98.2443C107.898 97.9602 107.502 97.8182 107.006 97.8182C106.585 97.8182 106.216 97.9318 105.898 98.1591C105.58 98.3826 105.331 98.7045 105.153 99.125C104.979 99.5455 104.892 100.049 104.892 100.636C104.892 101.231 104.979 101.742 105.153 102.17C105.328 102.595 105.572 102.922 105.886 103.153C106.205 103.381 106.578 103.494 107.006 103.494C107.309 103.494 107.58 103.437 107.818 103.324C108.061 103.206 108.263 103.038 108.426 102.818C108.589 102.598 108.701 102.331 108.761 102.017H110.727C110.678 102.634 110.496 103.182 110.182 103.659C109.867 104.133 109.439 104.504 108.898 104.773C108.356 105.038 107.72 105.17 106.989 105.17ZM116.28 105.17C115.405 105.17 114.649 104.989 114.013 104.625C113.38 104.258 112.893 103.739 112.553 103.068C112.212 102.394 112.041 101.6 112.041 100.688C112.041 99.7898 112.212 99.0019 112.553 98.3239C112.897 97.642 113.378 97.1117 113.996 96.733C114.613 96.3504 115.339 96.1591 116.172 96.1591C116.71 96.1591 117.217 96.2462 117.695 96.4205C118.176 96.5909 118.6 96.8561 118.967 97.2159C119.339 97.5758 119.63 98.0341 119.842 98.5909C120.054 99.1439 120.161 99.803 120.161 100.568V101.199H113.007V99.8125H118.189C118.185 99.4186 118.1 99.0682 117.933 98.7614C117.767 98.4508 117.534 98.2064 117.234 98.0284C116.939 97.8504 116.594 97.7614 116.2 97.7614C115.78 97.7614 115.411 97.8636 115.092 98.0682C114.774 98.2689 114.526 98.5341 114.348 98.8636C114.174 99.1894 114.085 99.5473 114.081 99.9375V101.148C114.081 101.655 114.174 102.091 114.359 102.455C114.545 102.814 114.804 103.091 115.138 103.284C115.471 103.473 115.861 103.568 116.308 103.568C116.607 103.568 116.878 103.527 117.121 103.443C117.363 103.356 117.573 103.229 117.751 103.062C117.929 102.896 118.064 102.689 118.155 102.443L120.075 102.659C119.954 103.167 119.723 103.61 119.382 103.989C119.045 104.364 118.613 104.655 118.087 104.864C117.56 105.068 116.958 105.17 116.28 105.17ZM135.523 93.3636V105H133.648L128.165 97.0739H128.068V105H125.96V93.3636H127.847L133.324 101.295H133.426V93.3636H135.523ZM137.82 105V93.3636H145.274V95.1307H139.928V98.2898H144.763V100.057H139.928V105H137.82ZM146.683 95.1307V93.3636H155.967V95.1307H152.371V105H150.28V95.1307H146.683Z" fill="white"/>
</svg>
