<svg width="214" height="157" viewBox="0 0 214 157" fill="none" xmlns="http://www.w3.org/2000/svg">
<rect width="214" height="157" rx="24" fill="#101010" fill-opacity="0.01"/>
<g clip-path="url(#clip0_4944_1137)">
<path d="M106.958 63.6265L96.0752 57.2869L106.958 50.9473L117.894 57.2869L106.958 63.6265Z" fill="white"/>
<path d="M106.906 44.5802L123.758 54.3273L129.834 50.8141L106.906 37.5273L84.1357 50.8141L90.1848 54.3273L106.906 44.5802Z" fill="white"/>
<path d="M105.559 66.1355L105.506 78.7091L94.5967 72.4751V59.8223L105.559 66.1355Z" fill="white"/>
<path d="M89.1019 75.6979L89.1283 56.23L83.0264 52.7168L83 79.2376L105.875 92.313L105.902 85.2866L89.1019 75.6979Z" fill="white"/>
<path d="M108.438 66.0836L119.347 59.8496L119.4 72.4232L108.464 78.7364L108.438 66.0836Z" fill="white"/>
<path d="M124.948 75.5668L108.095 85.2611V92.3139L131.049 79.1064L130.944 52.7441L124.868 56.2045L124.948 75.5668Z" fill="white"/>
</g>
<path opacity="0.5" d="M68.9432 113.08C68.8485 112.773 68.7178 112.498 68.5511 112.256C68.3883 112.009 68.1913 111.799 67.9602 111.625C67.733 111.451 67.4716 111.32 67.1761 111.233C66.8807 111.142 66.5587 111.097 66.2102 111.097C65.5852 111.097 65.0284 111.254 64.5398 111.568C64.0511 111.883 63.6667 112.345 63.3864 112.955C63.1098 113.561 62.9716 114.299 62.9716 115.17C62.9716 116.049 63.1098 116.794 63.3864 117.403C63.6629 118.013 64.0473 118.477 64.5398 118.795C65.0322 119.11 65.6042 119.267 66.2557 119.267C66.8466 119.267 67.358 119.153 67.7898 118.926C68.2254 118.699 68.5606 118.377 68.7955 117.96C69.0303 117.54 69.1477 117.047 69.1477 116.483L69.625 116.557H66.4659V114.909H71.1875V116.307C71.1875 117.303 70.9754 118.165 70.5511 118.892C70.1269 119.619 69.5436 120.18 68.8011 120.574C68.0587 120.964 67.2064 121.159 66.2443 121.159C65.1723 121.159 64.2311 120.919 63.4205 120.438C62.6136 119.953 61.983 119.265 61.5284 118.375C61.0777 117.481 60.8523 116.42 60.8523 115.193C60.8523 114.254 60.9848 113.415 61.25 112.676C61.5189 111.938 61.8939 111.311 62.375 110.795C62.8561 110.277 63.4205 109.883 64.0682 109.614C64.7159 109.341 65.4205 109.205 66.1818 109.205C66.8258 109.205 67.4261 109.299 67.983 109.489C68.5398 109.674 69.0341 109.939 69.4659 110.284C69.9015 110.629 70.2595 111.038 70.5398 111.511C70.8201 111.985 71.0038 112.508 71.0909 113.08H68.9432ZM77.169 121H73.2259V109.364H77.2486C78.4039 109.364 79.3963 109.597 80.2259 110.062C81.0592 110.525 81.6993 111.189 82.1463 112.057C82.5933 112.924 82.8168 113.962 82.8168 115.17C82.8168 116.383 82.5914 117.424 82.1406 118.295C81.6937 119.167 81.0478 119.835 80.2031 120.301C79.3622 120.767 78.3509 121 77.169 121ZM75.3338 119.176H77.0668C77.8774 119.176 78.5535 119.028 79.0952 118.733C79.6368 118.434 80.044 117.989 80.3168 117.398C80.5895 116.803 80.7259 116.061 80.7259 115.17C80.7259 114.28 80.5895 113.542 80.3168 112.955C80.044 112.364 79.6406 111.922 79.1065 111.631C78.5762 111.335 77.9171 111.188 77.1293 111.188H75.3338V119.176ZM85.6889 121H83.4389L87.5355 109.364H90.1378L94.2401 121H91.9901L88.8821 111.75H88.7912L85.6889 121ZM85.7628 116.438H91.8991V118.131H85.7628V116.438ZM109.702 113.29H107.577C107.516 112.941 107.404 112.633 107.241 112.364C107.079 112.091 106.876 111.86 106.634 111.67C106.391 111.481 106.115 111.339 105.804 111.244C105.497 111.146 105.166 111.097 104.81 111.097C104.177 111.097 103.616 111.256 103.128 111.574C102.639 111.888 102.257 112.35 101.98 112.96C101.704 113.566 101.565 114.307 101.565 115.182C101.565 116.072 101.704 116.822 101.98 117.432C102.26 118.038 102.643 118.496 103.128 118.807C103.616 119.114 104.175 119.267 104.804 119.267C105.152 119.267 105.478 119.222 105.781 119.131C106.088 119.036 106.363 118.898 106.605 118.716C106.851 118.534 107.058 118.311 107.224 118.045C107.395 117.78 107.512 117.477 107.577 117.136L109.702 117.148C109.622 117.701 109.45 118.22 109.185 118.705C108.923 119.189 108.58 119.617 108.156 119.989C107.732 120.356 107.236 120.644 106.668 120.852C106.099 121.057 105.469 121.159 104.776 121.159C103.753 121.159 102.84 120.922 102.037 120.449C101.234 119.975 100.601 119.292 100.139 118.398C99.6771 117.504 99.446 116.432 99.446 115.182C99.446 113.928 99.679 112.856 100.145 111.966C100.611 111.072 101.245 110.388 102.048 109.915C102.851 109.441 103.76 109.205 104.776 109.205C105.423 109.205 106.026 109.295 106.582 109.477C107.139 109.659 107.635 109.926 108.071 110.278C108.507 110.627 108.865 111.055 109.145 111.562C109.429 112.066 109.615 112.642 109.702 113.29ZM114.053 121.176C113.5 121.176 113.001 121.078 112.558 120.881C112.119 120.68 111.77 120.384 111.513 119.994C111.259 119.604 111.132 119.123 111.132 118.551C111.132 118.059 111.223 117.652 111.405 117.33C111.587 117.008 111.835 116.75 112.149 116.557C112.464 116.364 112.818 116.218 113.212 116.119C113.609 116.017 114.02 115.943 114.445 115.898C114.956 115.845 115.371 115.797 115.689 115.756C116.007 115.71 116.238 115.642 116.382 115.551C116.53 115.456 116.604 115.311 116.604 115.114V115.08C116.604 114.652 116.477 114.32 116.223 114.085C115.969 113.85 115.604 113.733 115.126 113.733C114.623 113.733 114.223 113.843 113.928 114.062C113.636 114.282 113.439 114.542 113.337 114.841L111.416 114.568C111.568 114.038 111.818 113.595 112.166 113.239C112.515 112.879 112.941 112.61 113.445 112.432C113.948 112.25 114.505 112.159 115.115 112.159C115.536 112.159 115.954 112.208 116.371 112.307C116.787 112.405 117.168 112.568 117.513 112.795C117.857 113.019 118.134 113.324 118.342 113.71C118.554 114.097 118.661 114.58 118.661 115.159V121H116.683V119.801H116.615C116.49 120.044 116.314 120.271 116.087 120.483C115.863 120.691 115.581 120.86 115.24 120.989C114.903 121.114 114.507 121.176 114.053 121.176ZM114.587 119.665C115 119.665 115.357 119.583 115.661 119.42C115.964 119.254 116.196 119.034 116.359 118.761C116.526 118.489 116.609 118.191 116.609 117.869V116.841C116.545 116.894 116.435 116.943 116.28 116.989C116.128 117.034 115.958 117.074 115.768 117.108C115.579 117.142 115.392 117.172 115.206 117.199C115.02 117.225 114.859 117.248 114.723 117.267C114.416 117.309 114.142 117.377 113.899 117.472C113.657 117.566 113.465 117.699 113.325 117.869C113.185 118.036 113.115 118.252 113.115 118.517C113.115 118.896 113.253 119.182 113.53 119.375C113.806 119.568 114.159 119.665 114.587 119.665ZM120.729 124.273V112.273H122.751V113.716H122.871C122.977 113.504 123.126 113.278 123.32 113.04C123.513 112.797 123.774 112.591 124.104 112.42C124.433 112.246 124.854 112.159 125.365 112.159C126.039 112.159 126.647 112.331 127.189 112.676C127.734 113.017 128.166 113.523 128.484 114.193C128.806 114.86 128.967 115.678 128.967 116.648C128.967 117.606 128.81 118.42 128.496 119.091C128.181 119.761 127.753 120.273 127.212 120.625C126.67 120.977 126.056 121.153 125.371 121.153C124.871 121.153 124.456 121.07 124.126 120.903C123.797 120.737 123.532 120.536 123.331 120.301C123.134 120.062 122.981 119.837 122.871 119.625H122.786V124.273H120.729ZM122.746 116.636C122.746 117.201 122.825 117.695 122.984 118.119C123.147 118.544 123.38 118.875 123.683 119.114C123.99 119.348 124.361 119.466 124.797 119.466C125.251 119.466 125.632 119.345 125.939 119.102C126.246 118.856 126.477 118.521 126.632 118.097C126.791 117.669 126.871 117.182 126.871 116.636C126.871 116.095 126.793 115.614 126.638 115.193C126.482 114.773 126.251 114.443 125.945 114.205C125.638 113.966 125.255 113.847 124.797 113.847C124.357 113.847 123.984 113.962 123.678 114.193C123.371 114.424 123.138 114.748 122.979 115.165C122.823 115.581 122.746 116.072 122.746 116.636ZM130.729 121V112.273H132.786V121H130.729ZM131.763 111.034C131.437 111.034 131.157 110.926 130.922 110.71C130.687 110.491 130.57 110.227 130.57 109.92C130.57 109.61 130.687 109.347 130.922 109.131C131.157 108.911 131.437 108.801 131.763 108.801C132.092 108.801 132.373 108.911 132.604 109.131C132.839 109.347 132.956 109.61 132.956 109.92C132.956 110.227 132.839 110.491 132.604 110.71C132.373 110.926 132.092 111.034 131.763 111.034ZM139.259 112.273V113.864H134.241V112.273H139.259ZM135.48 110.182H137.537V118.375C137.537 118.652 137.579 118.864 137.662 119.011C137.749 119.155 137.863 119.254 138.003 119.307C138.143 119.36 138.298 119.386 138.469 119.386C138.598 119.386 138.715 119.377 138.821 119.358C138.931 119.339 139.014 119.322 139.071 119.307L139.418 120.915C139.308 120.953 139.151 120.994 138.946 121.04C138.745 121.085 138.499 121.112 138.207 121.119C137.692 121.134 137.228 121.057 136.815 120.886C136.402 120.712 136.075 120.443 135.832 120.08C135.594 119.716 135.476 119.261 135.48 118.716V110.182ZM143.49 121.176C142.937 121.176 142.439 121.078 141.996 120.881C141.556 120.68 141.208 120.384 140.95 119.994C140.696 119.604 140.57 119.123 140.57 118.551C140.57 118.059 140.661 117.652 140.842 117.33C141.024 117.008 141.272 116.75 141.587 116.557C141.901 116.364 142.255 116.218 142.649 116.119C143.047 116.017 143.458 115.943 143.882 115.898C144.393 115.845 144.808 115.797 145.126 115.756C145.445 115.71 145.676 115.642 145.82 115.551C145.967 115.456 146.041 115.311 146.041 115.114V115.08C146.041 114.652 145.914 114.32 145.661 114.085C145.407 113.85 145.041 113.733 144.564 113.733C144.06 113.733 143.661 113.843 143.365 114.062C143.073 114.282 142.876 114.542 142.774 114.841L140.854 114.568C141.005 114.038 141.255 113.595 141.604 113.239C141.952 112.879 142.378 112.61 142.882 112.432C143.386 112.25 143.943 112.159 144.553 112.159C144.973 112.159 145.392 112.208 145.808 112.307C146.225 112.405 146.606 112.568 146.95 112.795C147.295 113.019 147.571 113.324 147.78 113.71C147.992 114.097 148.098 114.58 148.098 115.159V121H146.121V119.801H146.053C145.928 120.044 145.751 120.271 145.524 120.483C145.301 120.691 145.018 120.86 144.678 120.989C144.34 121.114 143.945 121.176 143.49 121.176ZM144.024 119.665C144.437 119.665 144.795 119.583 145.098 119.42C145.401 119.254 145.634 119.034 145.797 118.761C145.964 118.489 146.047 118.191 146.047 117.869V116.841C145.982 116.894 145.873 116.943 145.717 116.989C145.566 117.034 145.395 117.074 145.206 117.108C145.017 117.142 144.829 117.172 144.643 117.199C144.458 117.225 144.297 117.248 144.161 117.267C143.854 117.309 143.579 117.377 143.337 117.472C143.094 117.566 142.903 117.699 142.763 117.869C142.623 118.036 142.553 118.252 142.553 118.517C142.553 118.896 142.691 119.182 142.967 119.375C143.244 119.568 143.596 119.665 144.024 119.665ZM152.223 109.364V121H150.166V109.364H152.223Z" fill="white"/>
<defs>
<clipPath id="clip0_4944_1137">
<rect width="48" height="56" fill="white" transform="translate(83 37)"/>
</clipPath>
</defs>
</svg>
