<svg width="214" height="157" viewBox="0 0 214 157" fill="none" xmlns="http://www.w3.org/2000/svg">
<rect width="214" height="157" rx="24" fill="#101010" fill-opacity="0.01"/>
<path d="M124.526 41H88.4745C85.1739 41 82.5 43.6739 82.5 46.9745V83.0255C82.5 86.3244 85.1739 89 88.4745 89H124.526C127.824 89 130.5 86.3261 130.5 83.0255V46.9745C130.5 43.6756 127.826 41 124.526 41ZM114.13 59.884C114.672 60.5214 115.213 61.1588 115.756 61.7962C116.14 62.2453 116.541 62.6821 116.907 63.1455C117.855 64.3457 117.871 65.6667 116.914 66.858C116.033 67.9535 115.11 69.0117 114.205 70.0876C114.107 70.203 113.947 70.306 114.029 70.4871C114.111 70.6682 114.295 70.6203 114.446 70.6203C116.879 70.622 119.313 70.6203 121.745 70.6203C122.493 70.6203 123.141 70.8706 123.673 71.4033C124.726 72.3247 124.605 74.2174 123.442 75.0341C122.944 75.5153 122.327 75.6555 121.662 75.6555C117.809 75.6555 113.956 75.6537 110.103 75.6573C109.466 75.6573 108.83 75.6644 108.204 75.5224C106.927 75.233 106.156 74.3008 106.233 73.1077C106.272 72.5005 106.547 71.9661 106.881 71.4743C108.237 69.4804 109.681 67.5505 111.158 65.6454C111.247 65.5318 111.304 65.395 111.396 65.285C111.568 65.0808 111.527 64.9103 111.366 64.7221C110.631 63.8681 109.908 63.0017 109.168 62.153C108.976 61.9329 108.827 61.6932 108.685 61.4446C108.486 61.3434 108.333 61.0167 108.054 61.3168C107.866 61.766 107.525 62.1122 107.236 62.4886C106.742 63.1313 106.204 63.7527 105.752 64.4114C104.93 65.6063 104.033 66.7409 103.177 67.9056C102.339 69.0472 100.814 69.2567 99.6475 68.4169C99.628 68.3991 99.6085 68.3832 99.589 68.3654C99.193 68.0778 98.8521 67.7316 98.5432 67.3534C98.4154 67.2913 98.3248 67.1883 98.2414 67.0764C98.2218 67.0551 98.2005 67.0338 98.1775 67.0107C98.1561 66.9894 98.1348 66.9681 98.11 66.9433C98.0887 66.922 98.0674 66.9006 98.0461 66.8793L98.0425 66.8758C98.0212 66.8545 97.9999 66.835 97.9804 66.8136C97.9804 66.8136 97.9751 66.8083 97.9768 66.8083C97.9555 66.7888 97.936 66.771 97.9147 66.7515C97.8898 66.7249 97.8632 66.6982 97.8383 66.6716C97.8188 66.6521 97.7993 66.6308 97.7762 66.6077C97.7549 66.5864 97.7336 66.5651 97.7105 66.5402C97.6874 66.5171 97.6661 66.4958 97.6448 66.4745C97.6217 66.4515 97.5987 66.4284 97.5756 66.4053L97.5809 66.4088C97.556 66.3858 97.533 66.3609 97.5081 66.3378L97.5134 66.3431C97.4886 66.3201 97.4655 66.2952 97.4406 66.2721L97.446 66.2775C97.4211 66.2544 97.398 66.2313 97.3732 66.2082L97.3767 66.2118C97.3536 66.1887 97.3306 66.1656 97.3075 66.1443C97.2844 66.123 97.2613 66.0999 97.2382 66.0768C97.2151 66.0555 97.1921 66.0324 97.1708 66.0129C97.1477 65.9898 97.1246 65.965 97.0997 65.9419L97.1051 65.9472C97.0802 65.9224 97.0554 65.8993 97.0305 65.8797C96.9346 65.8442 96.8725 65.7768 96.837 65.6791C96.8139 65.656 96.789 65.633 96.766 65.6099L96.7695 65.6134C96.7464 65.5903 96.7216 65.5673 96.6949 65.5442C96.1286 65.0719 95.6474 64.5126 95.1112 64.0102C94.9319 63.8415 94.7579 63.6693 94.5697 63.513C94.385 63.3621 94.227 63.4296 94.2022 63.6675C94.1826 63.8557 94.1897 64.0457 94.1897 64.2357C94.1897 66.9699 94.1915 69.7041 94.1897 72.4401C94.1897 72.6727 94.2128 72.9089 94.14 73.1379C93.8932 75.1371 91.752 76.3409 90.0333 75.4407C89.6126 75.2205 89.2628 74.9134 89.048 74.4766C89.0338 74.4517 89.0195 74.4269 89.0036 74.402C88.9237 74.3133 88.8757 74.2121 88.8633 74.0931C88.7657 73.9386 88.7053 73.7753 88.7301 73.5889C88.6804 73.5161 88.6787 73.4362 88.6911 73.3527C88.684 72.9959 88.6698 72.639 88.6698 72.2839C88.6698 67.2486 88.6698 62.2134 88.6733 57.1781C88.6733 55.9211 89.2362 55.0032 90.392 54.5149C91.5194 54.0391 92.5758 54.2486 93.46 55.0849C94.6336 56.1981 95.7664 57.3539 96.9204 58.4902C98.1934 59.7419 99.47 60.9901 100.743 62.2418C100.835 62.3323 100.938 62.3874 101.063 62.4087C101.075 62.3874 101.093 62.3767 101.118 62.3785C102.765 60.129 104.431 57.8937 106.05 55.6264C106.723 54.6836 107.577 54.2699 108.722 54.2859C111.909 54.3303 115.096 54.3019 118.283 54.3019C119.412 54.3019 120.57 54.2184 121.695 54.3036C122.974 54.4013 124.245 55.1204 124.396 56.5088C124.565 58.0765 123.419 59.4028 121.832 59.417C119.4 59.4401 116.967 59.4259 114.533 59.4259C114.466 59.4259 114.4 59.4241 114.333 59.4259C114.21 59.4312 114.077 59.4223 114.016 59.5608C113.958 59.6975 114.047 59.7934 114.127 59.8875L114.13 59.884Z" fill="white"/>
<path opacity="0.5" d="M62.1477 105.364H64.7273L68.1818 113.795H68.3182L71.7727 105.364H74.3523V117H72.3295V109.006H72.2216L69.0057 116.966H67.4943L64.2784 108.989H64.1705V117H62.1477V105.364ZM79.0682 117.176C78.5152 117.176 78.017 117.078 77.5739 116.881C77.1345 116.68 76.786 116.384 76.5284 115.994C76.2746 115.604 76.1477 115.123 76.1477 114.551C76.1477 114.059 76.2386 113.652 76.4205 113.33C76.6023 113.008 76.8504 112.75 77.1648 112.557C77.4792 112.364 77.8333 112.218 78.2273 112.119C78.625 112.017 79.036 111.943 79.4602 111.898C79.9716 111.845 80.3864 111.797 80.7045 111.756C81.0227 111.71 81.2538 111.642 81.3977 111.551C81.5455 111.456 81.6193 111.311 81.6193 111.114V111.08C81.6193 110.652 81.4924 110.32 81.2386 110.085C80.9848 109.85 80.6193 109.733 80.142 109.733C79.6383 109.733 79.2386 109.843 78.9432 110.062C78.6515 110.282 78.4545 110.542 78.3523 110.841L76.4318 110.568C76.5833 110.038 76.8333 109.595 77.1818 109.239C77.5303 108.879 77.9564 108.61 78.4602 108.432C78.964 108.25 79.5208 108.159 80.1307 108.159C80.5511 108.159 80.9697 108.208 81.3864 108.307C81.803 108.405 82.1837 108.568 82.5284 108.795C82.8731 109.019 83.1496 109.324 83.358 109.71C83.5701 110.097 83.6761 110.58 83.6761 111.159V117H81.6989V115.801H81.6307C81.5057 116.044 81.3295 116.271 81.1023 116.483C80.8788 116.691 80.5966 116.86 80.2557 116.989C79.9186 117.114 79.5227 117.176 79.0682 117.176ZM79.6023 115.665C80.0152 115.665 80.3731 115.583 80.6761 115.42C80.9792 115.254 81.2121 115.034 81.375 114.761C81.5417 114.489 81.625 114.191 81.625 113.869V112.841C81.5606 112.894 81.4508 112.943 81.2955 112.989C81.1439 113.034 80.9735 113.074 80.7841 113.108C80.5947 113.142 80.4072 113.172 80.2216 113.199C80.036 113.225 79.875 113.248 79.7386 113.267C79.4318 113.309 79.1572 113.377 78.9148 113.472C78.6723 113.566 78.4811 113.699 78.3409 113.869C78.2008 114.036 78.1307 114.252 78.1307 114.517C78.1307 114.896 78.2689 115.182 78.5455 115.375C78.822 115.568 79.1742 115.665 79.6023 115.665ZM89.5398 120.455C88.8011 120.455 88.1667 120.354 87.6364 120.153C87.1061 119.956 86.6799 119.691 86.358 119.358C86.036 119.025 85.8125 118.655 85.6875 118.25L87.5398 117.801C87.6231 117.972 87.7443 118.14 87.9034 118.307C88.0625 118.477 88.2765 118.617 88.5455 118.727C88.8182 118.841 89.161 118.898 89.5739 118.898C90.1572 118.898 90.6402 118.756 91.0227 118.472C91.4053 118.191 91.5966 117.729 91.5966 117.085V115.432H91.4943C91.3883 115.644 91.233 115.862 91.0284 116.085C90.8277 116.309 90.5606 116.496 90.2273 116.648C89.8977 116.799 89.483 116.875 88.983 116.875C88.3125 116.875 87.7045 116.718 87.1591 116.403C86.6174 116.085 86.1856 115.612 85.8636 114.983C85.5455 114.35 85.3864 113.559 85.3864 112.608C85.3864 111.65 85.5455 110.841 85.8636 110.182C86.1856 109.519 86.6193 109.017 87.1648 108.676C87.7102 108.331 88.3182 108.159 88.9886 108.159C89.5 108.159 89.9205 108.246 90.25 108.42C90.5833 108.591 90.8485 108.797 91.0455 109.04C91.2424 109.278 91.392 109.504 91.4943 109.716H91.608V108.273H93.6364V117.142C93.6364 117.888 93.4583 118.506 93.1023 118.994C92.7462 119.483 92.2595 119.848 91.642 120.091C91.0246 120.333 90.3239 120.455 89.5398 120.455ZM89.5568 115.261C89.9924 115.261 90.3636 115.155 90.6705 114.943C90.9773 114.731 91.2102 114.426 91.3693 114.028C91.5284 113.631 91.608 113.153 91.608 112.597C91.608 112.047 91.5284 111.566 91.3693 111.153C91.214 110.741 90.983 110.42 90.6761 110.193C90.3731 109.962 90 109.847 89.5568 109.847C89.0985 109.847 88.7159 109.966 88.4091 110.205C88.1023 110.443 87.8712 110.771 87.7159 111.188C87.5606 111.6 87.483 112.07 87.483 112.597C87.483 113.131 87.5606 113.598 87.7159 114C87.875 114.398 88.108 114.708 88.4148 114.932C88.7254 115.152 89.1061 115.261 89.5568 115.261ZM95.7443 117V108.273H97.8011V117H95.7443ZM96.7784 107.034C96.4527 107.034 96.1723 106.926 95.9375 106.71C95.7027 106.491 95.5852 106.227 95.5852 105.92C95.5852 105.61 95.7027 105.347 95.9375 105.131C96.1723 104.911 96.4527 104.801 96.7784 104.801C97.108 104.801 97.3883 104.911 97.6193 105.131C97.8542 105.347 97.9716 105.61 97.9716 105.92C97.9716 106.227 97.8542 106.491 97.6193 106.71C97.3883 106.926 97.108 107.034 96.7784 107.034ZM103.723 117.17C102.852 117.17 102.104 116.979 101.479 116.597C100.857 116.214 100.378 115.686 100.041 115.011C99.7079 114.333 99.5412 113.553 99.5412 112.67C99.5412 111.784 99.7116 111.002 100.053 110.324C100.393 109.642 100.875 109.112 101.496 108.733C102.121 108.35 102.859 108.159 103.712 108.159C104.42 108.159 105.047 108.29 105.592 108.551C106.142 108.809 106.579 109.174 106.905 109.648C107.231 110.117 107.416 110.667 107.462 111.295H105.496C105.416 110.875 105.227 110.525 104.928 110.244C104.632 109.96 104.236 109.818 103.74 109.818C103.32 109.818 102.95 109.932 102.632 110.159C102.314 110.383 102.066 110.705 101.888 111.125C101.714 111.545 101.626 112.049 101.626 112.636C101.626 113.231 101.714 113.742 101.888 114.17C102.062 114.595 102.306 114.922 102.621 115.153C102.939 115.381 103.312 115.494 103.74 115.494C104.043 115.494 104.314 115.437 104.553 115.324C104.795 115.206 104.998 115.038 105.161 114.818C105.323 114.598 105.435 114.331 105.496 114.017H107.462C107.412 114.634 107.231 115.182 106.916 115.659C106.602 116.133 106.174 116.504 105.632 116.773C105.09 117.038 104.454 117.17 103.723 117.17ZM113.21 117V105.364H120.778V107.131H115.318V110.29H120.386V112.057H115.318V115.233H120.824V117H113.21ZM126.077 117.153C125.391 117.153 124.777 116.977 124.236 116.625C123.694 116.273 123.266 115.761 122.952 115.091C122.637 114.42 122.48 113.606 122.48 112.648C122.48 111.678 122.639 110.86 122.957 110.193C123.279 109.523 123.713 109.017 124.259 108.676C124.804 108.331 125.412 108.159 126.082 108.159C126.594 108.159 127.014 108.246 127.344 108.42C127.673 108.591 127.935 108.797 128.128 109.04C128.321 109.278 128.471 109.504 128.577 109.716H128.662V105.364H130.724V117H128.702V115.625H128.577C128.471 115.837 128.317 116.062 128.116 116.301C127.916 116.536 127.651 116.737 127.321 116.903C126.991 117.07 126.577 117.153 126.077 117.153ZM126.651 115.466C127.086 115.466 127.457 115.348 127.764 115.114C128.071 114.875 128.304 114.544 128.463 114.119C128.622 113.695 128.702 113.201 128.702 112.636C128.702 112.072 128.622 111.581 128.463 111.165C128.308 110.748 128.077 110.424 127.77 110.193C127.467 109.962 127.094 109.847 126.651 109.847C126.192 109.847 125.81 109.966 125.503 110.205C125.196 110.443 124.965 110.773 124.81 111.193C124.654 111.614 124.577 112.095 124.577 112.636C124.577 113.182 124.654 113.669 124.81 114.097C124.969 114.521 125.202 114.856 125.509 115.102C125.819 115.345 126.2 115.466 126.651 115.466ZM136.78 117.17C135.905 117.17 135.149 116.989 134.513 116.625C133.88 116.258 133.393 115.739 133.053 115.068C132.712 114.394 132.541 113.6 132.541 112.688C132.541 111.79 132.712 111.002 133.053 110.324C133.397 109.642 133.878 109.112 134.496 108.733C135.113 108.35 135.839 108.159 136.672 108.159C137.21 108.159 137.717 108.246 138.195 108.42C138.676 108.591 139.1 108.856 139.467 109.216C139.839 109.576 140.13 110.034 140.342 110.591C140.554 111.144 140.661 111.803 140.661 112.568V113.199H133.507V111.812H138.689C138.685 111.419 138.6 111.068 138.433 110.761C138.267 110.451 138.034 110.206 137.734 110.028C137.439 109.85 137.094 109.761 136.7 109.761C136.28 109.761 135.911 109.864 135.592 110.068C135.274 110.269 135.026 110.534 134.848 110.864C134.674 111.189 134.585 111.547 134.581 111.938V113.148C134.581 113.655 134.674 114.091 134.859 114.455C135.045 114.814 135.304 115.091 135.638 115.284C135.971 115.473 136.361 115.568 136.808 115.568C137.107 115.568 137.378 115.527 137.621 115.443C137.863 115.356 138.073 115.229 138.251 115.062C138.429 114.896 138.564 114.689 138.655 114.443L140.575 114.659C140.454 115.167 140.223 115.61 139.882 115.989C139.545 116.364 139.113 116.655 138.587 116.864C138.06 117.068 137.458 117.17 136.78 117.17ZM144.457 111.886V117H142.401V108.273H144.366V109.756H144.469C144.67 109.267 144.99 108.879 145.429 108.591C145.872 108.303 146.42 108.159 147.071 108.159C147.673 108.159 148.198 108.288 148.645 108.545C149.096 108.803 149.444 109.176 149.69 109.665C149.94 110.153 150.063 110.746 150.06 111.443V117H148.003V111.761C148.003 111.178 147.851 110.722 147.548 110.392C147.249 110.062 146.834 109.898 146.304 109.898C145.944 109.898 145.624 109.977 145.344 110.136C145.067 110.292 144.849 110.517 144.69 110.812C144.535 111.108 144.457 111.466 144.457 111.886Z" fill="white"/>
</svg>
