<svg width="215" height="157" viewBox="0 0 215 157" fill="none" xmlns="http://www.w3.org/2000/svg">
<rect width="215" height="157" rx="24" fill="#101010" fill-opacity="0.01"/>
<g clip-path="url(#clip0_4944_1116)">
<path fill-rule="evenodd" clip-rule="evenodd" d="M133.945 43.5366C131.791 49.8678 123.979 70.0947 122.111 74.1744C121.033 76.531 119.334 79.5861 118.337 80.9638C117.34 82.3417 116.524 83.5793 116.524 83.7144C116.524 83.8493 117.334 83.9547 118.325 83.949C120.893 83.9342 123.4 82.4843 126.088 79.4601C129.413 75.7196 131.127 71.4129 132.174 64.167C133.811 52.8424 135.246 41.5173 135.105 41.0394C135.025 40.7719 134.503 41.8955 133.945 43.5366ZM92.7865 48.0669C90.2123 49.0871 86.0779 53.7862 84.3328 57.6752C83.5888 59.3334 82.622 62.5456 82.1837 64.8132C81.3685 69.0321 78.6871 88.7626 78.8974 88.9988C78.9609 89.0708 80.289 85.9812 81.8475 82.1328C93.0519 54.473 93.4914 53.5153 96.676 49.8048C98.3257 47.8828 98.3401 47.8371 97.375 47.5461C95.9249 47.1092 94.9147 47.2237 92.7865 48.0669ZM98.2639 51.1822C96.7298 52.3454 93.6397 56.6315 93.6364 57.6011C93.6352 57.9245 94.6355 58.7621 95.8596 59.4616C98.1613 60.7781 113.024 67.2671 113.736 67.2671C113.958 67.2671 113.649 66.677 113.05 65.9555C112.452 65.234 110.039 61.7108 107.689 58.1263C105.339 54.5417 102.985 51.2685 102.458 50.8531C101.138 49.813 99.9463 49.9064 98.2639 51.1822ZM103.286 69.2941C104.888 71.4579 107.086 74.546 108.17 76.1556C111.007 80.3673 112.56 81.7275 114.128 81.3746C116.019 80.9492 118.079 78.9547 119.493 76.1795C120.187 74.8187 120.756 73.4509 120.759 73.14C120.762 72.6401 102.156 65.3593 100.874 65.3593C100.599 65.3593 101.684 67.1297 103.286 69.2941Z" fill="white"/>
</g>
<path opacity="0.5" d="M82.7102 105.364V117H80.8352L75.3523 109.074H75.2557V117H73.1477V105.364H75.0341L80.5114 113.295H80.6136V105.364H82.7102ZM84.9162 117V108.273H86.973V117H84.9162ZM85.9503 107.034C85.6245 107.034 85.3442 106.926 85.1094 106.71C84.8745 106.491 84.7571 106.227 84.7571 105.92C84.7571 105.61 84.8745 105.347 85.1094 105.131C85.3442 104.911 85.6245 104.801 85.9503 104.801C86.2798 104.801 86.5601 104.911 86.7912 105.131C87.026 105.347 87.1435 105.61 87.1435 105.92C87.1435 106.227 87.026 106.491 86.7912 106.71C86.5601 106.926 86.2798 107.034 85.9503 107.034ZM93.5085 108.273V109.864H88.3494V108.273H93.5085ZM89.6392 117V107.449C89.6392 106.862 89.7604 106.373 90.0028 105.983C90.2491 105.593 90.5786 105.301 90.9915 105.108C91.4044 104.915 91.8627 104.818 92.3665 104.818C92.7225 104.818 93.0388 104.847 93.3153 104.903C93.5919 104.96 93.7964 105.011 93.929 105.057L93.5199 106.648C93.4328 106.621 93.3229 106.595 93.1903 106.568C93.0578 106.538 92.91 106.523 92.7472 106.523C92.3646 106.523 92.0938 106.616 91.9347 106.801C91.7794 106.983 91.7017 107.244 91.7017 107.585V117H89.6392ZM99.4773 108.273V109.864H94.4602V108.273H99.4773ZM95.6989 106.182H97.7557V114.375C97.7557 114.652 97.7973 114.864 97.8807 115.011C97.9678 115.155 98.0814 115.254 98.2216 115.307C98.3617 115.36 98.517 115.386 98.6875 115.386C98.8163 115.386 98.9337 115.377 99.0398 115.358C99.1496 115.339 99.233 115.322 99.2898 115.307L99.6364 116.915C99.5265 116.953 99.3693 116.994 99.1648 117.04C98.964 117.085 98.7178 117.112 98.4261 117.119C97.911 117.134 97.447 117.057 97.0341 116.886C96.6212 116.712 96.2936 116.443 96.0511 116.08C95.8125 115.716 95.6951 115.261 95.6989 114.716V106.182ZM103.709 117.176C103.156 117.176 102.658 117.078 102.214 116.881C101.775 116.68 101.427 116.384 101.169 115.994C100.915 115.604 100.788 115.123 100.788 114.551C100.788 114.059 100.879 113.652 101.061 113.33C101.243 113.008 101.491 112.75 101.805 112.557C102.12 112.364 102.474 112.218 102.868 112.119C103.266 112.017 103.677 111.943 104.101 111.898C104.612 111.845 105.027 111.797 105.345 111.756C105.663 111.71 105.894 111.642 106.038 111.551C106.186 111.456 106.26 111.311 106.26 111.114V111.08C106.26 110.652 106.133 110.32 105.879 110.085C105.625 109.85 105.26 109.733 104.783 109.733C104.279 109.733 103.879 109.843 103.584 110.062C103.292 110.282 103.095 110.542 102.993 110.841L101.072 110.568C101.224 110.038 101.474 109.595 101.822 109.239C102.171 108.879 102.597 108.61 103.101 108.432C103.605 108.25 104.161 108.159 104.771 108.159C105.192 108.159 105.61 108.208 106.027 108.307C106.444 108.405 106.824 108.568 107.169 108.795C107.514 109.019 107.79 109.324 107.999 109.71C108.211 110.097 108.317 110.58 108.317 111.159V117H106.339V115.801H106.271C106.146 116.044 105.97 116.271 105.743 116.483C105.519 116.691 105.237 116.86 104.896 116.989C104.559 117.114 104.163 117.176 103.709 117.176ZM104.243 115.665C104.656 115.665 105.014 115.583 105.317 115.42C105.62 115.254 105.853 115.034 106.016 114.761C106.182 114.489 106.266 114.191 106.266 113.869V112.841C106.201 112.894 106.091 112.943 105.936 112.989C105.785 113.034 105.614 113.074 105.425 113.108C105.235 113.142 105.048 113.172 104.862 113.199C104.677 113.225 104.516 113.248 104.379 113.267C104.072 113.309 103.798 113.377 103.555 113.472C103.313 113.566 103.122 113.699 102.982 113.869C102.841 114.036 102.771 114.252 102.771 114.517C102.771 114.896 102.91 115.182 103.186 115.375C103.463 115.568 103.815 115.665 104.243 115.665ZM110.476 117V105.364H112.533V109.716H112.618C112.724 109.504 112.874 109.278 113.067 109.04C113.26 108.797 113.521 108.591 113.851 108.42C114.18 108.246 114.601 108.159 115.112 108.159C115.786 108.159 116.394 108.331 116.936 108.676C117.482 109.017 117.913 109.523 118.232 110.193C118.554 110.86 118.714 111.678 118.714 112.648C118.714 113.606 118.557 114.42 118.243 115.091C117.929 115.761 117.5 116.273 116.959 116.625C116.417 116.977 115.804 117.153 115.118 117.153C114.618 117.153 114.203 117.07 113.874 116.903C113.544 116.737 113.279 116.536 113.078 116.301C112.881 116.062 112.728 115.837 112.618 115.625H112.499V117H110.476ZM112.493 112.636C112.493 113.201 112.572 113.695 112.732 114.119C112.894 114.544 113.127 114.875 113.43 115.114C113.737 115.348 114.108 115.466 114.544 115.466C114.999 115.466 115.379 115.345 115.686 115.102C115.993 114.856 116.224 114.521 116.379 114.097C116.538 113.669 116.618 113.182 116.618 112.636C116.618 112.095 116.54 111.614 116.385 111.193C116.23 110.773 115.999 110.443 115.692 110.205C115.385 109.966 115.002 109.847 114.544 109.847C114.105 109.847 113.732 109.962 113.425 110.193C113.118 110.424 112.885 110.748 112.726 111.165C112.571 111.581 112.493 112.072 112.493 112.636ZM122.52 105.364V117H120.463V105.364H122.52ZM128.499 117.17C127.624 117.17 126.868 116.989 126.232 116.625C125.599 116.258 125.112 115.739 124.771 115.068C124.43 114.394 124.26 113.6 124.26 112.688C124.26 111.79 124.43 111.002 124.771 110.324C125.116 109.642 125.597 109.112 126.214 108.733C126.832 108.35 127.557 108.159 128.391 108.159C128.929 108.159 129.436 108.246 129.913 108.42C130.394 108.591 130.819 108.856 131.186 109.216C131.557 109.576 131.849 110.034 132.061 110.591C132.273 111.144 132.379 111.803 132.379 112.568V113.199H125.226V111.812H130.408C130.404 111.419 130.319 111.068 130.152 110.761C129.985 110.451 129.752 110.206 129.453 110.028C129.158 109.85 128.813 109.761 128.419 109.761C127.999 109.761 127.629 109.864 127.311 110.068C126.993 110.269 126.745 110.534 126.567 110.864C126.393 111.189 126.304 111.547 126.3 111.938V113.148C126.3 113.655 126.393 114.091 126.578 114.455C126.764 114.814 127.023 115.091 127.357 115.284C127.69 115.473 128.08 115.568 128.527 115.568C128.826 115.568 129.097 115.527 129.339 115.443C129.582 115.356 129.792 115.229 129.97 115.062C130.148 114.896 130.283 114.689 130.374 114.443L132.294 114.659C132.173 115.167 131.942 115.61 131.601 115.989C131.264 116.364 130.832 116.655 130.305 116.864C129.779 117.068 129.177 117.17 128.499 117.17ZM141.017 110.58L139.142 110.784C139.089 110.595 138.996 110.417 138.864 110.25C138.735 110.083 138.561 109.949 138.341 109.847C138.121 109.744 137.852 109.693 137.534 109.693C137.106 109.693 136.746 109.786 136.455 109.972C136.167 110.157 136.025 110.398 136.028 110.693C136.025 110.947 136.117 111.153 136.307 111.312C136.5 111.472 136.818 111.602 137.261 111.705L138.75 112.023C139.576 112.201 140.189 112.483 140.591 112.869C140.996 113.256 141.201 113.761 141.205 114.386C141.201 114.936 141.04 115.42 140.722 115.841C140.407 116.258 139.97 116.583 139.409 116.818C138.848 117.053 138.205 117.17 137.477 117.17C136.409 117.17 135.549 116.947 134.898 116.5C134.246 116.049 133.858 115.422 133.733 114.619L135.739 114.426C135.83 114.82 136.023 115.117 136.318 115.318C136.614 115.519 136.998 115.619 137.472 115.619C137.96 115.619 138.352 115.519 138.648 115.318C138.947 115.117 139.097 114.869 139.097 114.574C139.097 114.324 139 114.117 138.807 113.955C138.617 113.792 138.322 113.667 137.92 113.58L136.432 113.267C135.595 113.093 134.975 112.799 134.574 112.386C134.172 111.97 133.973 111.443 133.977 110.807C133.973 110.269 134.119 109.803 134.415 109.409C134.714 109.011 135.129 108.705 135.659 108.489C136.193 108.269 136.809 108.159 137.506 108.159C138.528 108.159 139.333 108.377 139.92 108.812C140.511 109.248 140.877 109.837 141.017 110.58Z" fill="white"/>
<defs>
<clipPath id="clip0_4944_1116">
<rect width="56.2286" height="48" fill="white" transform="translate(78.8857 41)"/>
</clipPath>
</defs>
</svg>
