<svg width="214" height="157" viewBox="0 0 214 157" fill="none" xmlns="http://www.w3.org/2000/svg">
<rect width="214" height="157" rx="24" fill="#101010" fill-opacity="0.01"/>
<g clip-path="url(#clip0_4944_1160)">
<path d="M86.2578 44H57.665C57.4886 44 57.3195 44.0656 57.1948 44.1822C57.0701 44.2989 57 44.4572 57 44.6222V71.3767C57 71.5417 57.0701 71.7002 57.1948 71.8169C57.3195 71.9334 57.4886 71.9989 57.665 71.9989H86.2578C86.4343 71.9989 86.6033 71.9334 86.7282 71.8169C86.8528 71.7002 86.923 71.5417 86.923 71.3767V44.6222C86.923 44.4572 86.8528 44.2989 86.7282 44.1822C86.6033 44.0656 86.4343 44 86.2578 44ZM76.9486 62.0438C76.9486 62.2088 76.8785 62.3671 76.7538 62.4838C76.6291 62.6004 76.46 62.666 76.2836 62.666H67.6392C67.4629 62.666 67.2937 62.6004 67.169 62.4838C67.0443 62.3671 66.9743 62.2088 66.9743 62.0438V53.9552C66.9743 53.7902 67.0443 53.6319 67.169 53.5152C67.2937 53.3985 67.4629 53.333 67.6392 53.333H76.2836C76.46 53.333 76.6291 53.3985 76.7538 53.5152C76.8785 53.6319 76.9486 53.7902 76.9486 53.9552V62.0438Z" fill="white"/>
<path d="M146.116 53.334H137.472C137.105 53.334 136.807 53.6125 136.807 53.9562V62.0448C136.807 62.3884 137.105 62.667 137.472 62.667H146.116C146.483 62.667 146.781 62.3884 146.781 62.0448V53.9562C146.781 53.6125 146.483 53.334 146.116 53.334Z" fill="white"/>
<path d="M136.144 44.001H127.5C127.133 44.001 126.835 44.2795 126.835 44.6232V52.7118C126.835 53.0554 127.133 53.334 127.5 53.334H136.144C136.511 53.334 136.809 53.0554 136.809 52.7118V44.6232C136.809 44.2795 136.511 44.001 136.144 44.001Z" fill="white"/>
<path d="M156.096 44.001H147.451C147.084 44.001 146.786 44.2795 146.786 44.6232V52.7118C146.786 53.0554 147.084 53.334 147.451 53.334H156.096C156.463 53.334 156.76 53.0554 156.76 52.7118V44.6232C156.76 44.2795 156.463 44.001 156.096 44.001Z" fill="white"/>
<path d="M136.143 62.667H127.499C127.132 62.667 126.834 62.9455 126.834 63.2892V71.3779C126.834 71.7214 127.132 72.0001 127.499 72.0001H136.143C136.51 72.0001 136.808 71.7214 136.808 71.3779V63.2892C136.808 62.9455 136.51 62.667 136.143 62.667Z" fill="white"/>
<path d="M156.096 62.667H147.451C147.084 62.667 146.786 62.9455 146.786 63.2892V71.3779C146.786 71.7214 147.084 72.0001 147.451 72.0001H156.096C156.463 72.0001 156.76 71.7214 156.76 71.3779V63.2892C156.76 62.9455 156.463 62.667 156.096 62.667Z" fill="white"/>
<path d="M121.171 44.001H112.527C112.159 44.001 111.861 44.2795 111.861 44.6232V52.7118C111.861 53.0554 112.159 53.334 112.527 53.334H121.171C121.538 53.334 121.836 53.0554 121.836 52.7118V44.6232C121.836 44.2795 121.538 44.001 121.171 44.001Z" fill="white"/>
<path d="M121.171 62.667H112.527C112.159 62.667 111.861 62.9455 111.861 63.2892V71.3779C111.861 71.7214 112.159 72.0001 112.527 72.0001H121.171C121.538 72.0001 121.836 71.7214 121.836 71.3779V63.2892C121.836 62.9455 121.538 62.667 121.171 62.667Z" fill="white"/>
<path d="M111.858 53.9482C111.858 53.7832 111.788 53.6249 111.663 53.5082C111.538 53.3916 111.369 53.326 111.193 53.326H101.884V44.6222C101.884 44.4572 101.813 44.2989 101.689 44.1822C101.564 44.0656 101.395 44 101.219 44H92.5744C92.3978 44 92.2288 44.0656 92.104 44.1822C91.9793 44.2989 91.9092 44.4572 91.9092 44.6222V71.3628C91.9092 71.5278 91.9793 71.686 92.104 71.8028C92.2288 71.9195 92.3978 71.985 92.5744 71.985H101.219C101.395 71.985 101.564 71.9195 101.689 71.8028C101.813 71.686 101.884 71.5278 101.884 71.3628V62.659H111.193C111.369 62.659 111.538 62.5934 111.663 62.4768C111.788 62.3601 111.858 62.2018 111.858 62.0368V53.9482Z" fill="white"/>
</g>
<path opacity="0.5" d="M97.4257 108.182C97.4257 109.436 97.1909 110.509 96.7212 111.403C96.2552 112.294 95.6189 112.975 94.8121 113.449C94.009 113.922 93.0981 114.159 92.0791 114.159C91.0602 114.159 90.1473 113.922 89.3405 113.449C88.5374 112.972 87.9011 112.288 87.4314 111.398C86.9655 110.504 86.7325 109.432 86.7325 108.182C86.7325 106.928 86.9655 105.856 87.4314 104.966C87.9011 104.072 88.5374 103.388 89.3405 102.915C90.1473 102.441 91.0602 102.205 92.0791 102.205C93.0981 102.205 94.009 102.441 94.8121 102.915C95.6189 103.388 96.2552 104.072 96.7212 104.966C97.1909 105.856 97.4257 106.928 97.4257 108.182ZM95.3064 108.182C95.3064 107.299 95.1681 106.555 94.8916 105.949C94.6189 105.339 94.2401 104.879 93.7552 104.568C93.2704 104.254 92.7117 104.097 92.0791 104.097C91.4465 104.097 90.8878 104.254 90.403 104.568C89.9181 104.879 89.5374 105.339 89.2609 105.949C88.9882 106.555 88.8518 107.299 88.8518 108.182C88.8518 109.064 88.9882 109.811 89.2609 110.42C89.5374 111.027 89.9181 111.487 90.403 111.801C90.8878 112.112 91.4465 112.267 92.0791 112.267C92.7117 112.267 93.2704 112.112 93.7552 111.801C94.2401 111.487 94.6189 111.027 94.8916 110.42C95.1681 109.811 95.3064 109.064 95.3064 108.182ZM99.4186 114V102.364H101.527V107.71H101.669L106.208 102.364H108.782L104.282 107.585L108.822 114H106.288L102.816 109.011L101.527 110.534V114H99.4186ZM110.247 114V102.364H117.815V104.131H112.355V107.29H117.423V109.057H112.355V112.233H117.86V114H110.247ZM121.556 105.273L123.318 108.494L125.108 105.273H127.284L124.653 109.636L127.329 114H125.164L123.318 110.858L121.488 114H119.306L121.965 109.636L119.375 105.273H121.556Z" fill="white"/>
<defs>
<clipPath id="clip0_4944_1160">
<rect width="99.7605" height="28" fill="white" transform="translate(57 44)"/>
</clipPath>
</defs>
</svg>
