<svg width="214" height="157" viewBox="0 0 214 157" fill="none" xmlns="http://www.w3.org/2000/svg">
<rect width="214" height="157" rx="24" fill="#101010" fill-opacity="0.01"/>
<g clip-path="url(#clip0_4944_1107)">
<path opacity="0.2" d="M106.5 89C119.755 89 130.5 78.2548 130.5 65C130.5 51.7452 119.755 41 106.5 41C93.2452 41 82.5 51.7452 82.5 65C82.5 78.2548 93.2452 89 106.5 89Z" fill="url(#paint0_linear_4944_1107)"/>
<path opacity="0.2" d="M106.501 81.9192C115.845 81.9192 123.42 74.3441 123.42 64.9997C123.42 55.6552 115.845 48.0801 106.501 48.0801C97.1562 48.0801 89.5811 55.6552 89.5811 64.9997C89.5811 74.3441 97.1562 81.9192 106.501 81.9192Z" fill="url(#paint1_linear_4944_1107)"/>
<g filter="url(#filter0_d_4944_1107)">
<path d="M106.502 75.0235C112.037 75.0235 116.524 70.5361 116.524 65.0005C116.524 59.465 112.037 54.9775 106.502 54.9775C100.966 54.9775 96.4785 59.465 96.4785 65.0005C96.4785 70.5361 100.966 75.0235 106.502 75.0235Z" fill="url(#paint2_linear_4944_1107)"/>
</g>
</g>
<path opacity="0.5" d="M59.5455 111.182C59.5455 112.436 59.3106 113.509 58.8409 114.403C58.375 115.294 57.7386 115.975 56.9318 116.449C56.1288 116.922 55.2178 117.159 54.1989 117.159C53.1799 117.159 52.267 116.922 51.4602 116.449C50.6572 115.972 50.0208 115.288 49.5511 114.398C49.0852 113.504 48.8523 112.432 48.8523 111.182C48.8523 109.928 49.0852 108.856 49.5511 107.966C50.0208 107.072 50.6572 106.388 51.4602 105.915C52.267 105.441 53.1799 105.205 54.1989 105.205C55.2178 105.205 56.1288 105.441 56.9318 105.915C57.7386 106.388 58.375 107.072 58.8409 107.966C59.3106 108.856 59.5455 109.928 59.5455 111.182ZM57.4261 111.182C57.4261 110.299 57.2879 109.555 57.0114 108.949C56.7386 108.339 56.3598 107.879 55.875 107.568C55.3902 107.254 54.8314 107.097 54.1989 107.097C53.5663 107.097 53.0076 107.254 52.5227 107.568C52.0379 107.879 51.6572 108.339 51.3807 108.949C51.108 109.555 50.9716 110.299 50.9716 111.182C50.9716 112.064 51.108 112.811 51.3807 113.42C51.6572 114.027 52.0379 114.487 52.5227 114.801C53.0076 115.112 53.5663 115.267 54.1989 115.267C54.8314 115.267 55.3902 115.112 55.875 114.801C56.3598 114.487 56.7386 114.027 57.0114 113.42C57.2879 112.811 57.4261 112.064 57.4261 111.182ZM61.4474 117V108.273H63.4418V109.727H63.5327C63.6918 109.223 63.9645 108.835 64.3509 108.562C64.741 108.286 65.1861 108.148 65.6861 108.148C65.7997 108.148 65.9266 108.153 66.0668 108.165C66.2107 108.172 66.33 108.186 66.4247 108.205V110.097C66.3376 110.066 66.1993 110.04 66.0099 110.017C65.8243 109.991 65.6444 109.977 65.4702 109.977C65.0952 109.977 64.758 110.059 64.4588 110.222C64.1634 110.381 63.9304 110.602 63.7599 110.886C63.5895 111.17 63.5043 111.498 63.5043 111.869V117H61.4474ZM70.6705 117.153C69.9848 117.153 69.3712 116.977 68.8295 116.625C68.2879 116.273 67.8598 115.761 67.5455 115.091C67.2311 114.42 67.0739 113.606 67.0739 112.648C67.0739 111.678 67.233 110.86 67.5511 110.193C67.8731 109.523 68.3068 109.017 68.8523 108.676C69.3977 108.331 70.0057 108.159 70.6761 108.159C71.1875 108.159 71.608 108.246 71.9375 108.42C72.267 108.591 72.5284 108.797 72.7216 109.04C72.9148 109.278 73.0644 109.504 73.1705 109.716H73.2557V105.364H75.3182V117H73.2955V115.625H73.1705C73.0644 115.837 72.911 116.062 72.7102 116.301C72.5095 116.536 72.2443 116.737 71.9148 116.903C71.5852 117.07 71.1705 117.153 70.6705 117.153ZM71.2443 115.466C71.6799 115.466 72.0511 115.348 72.358 115.114C72.6648 114.875 72.8977 114.544 73.0568 114.119C73.2159 113.695 73.2955 113.201 73.2955 112.636C73.2955 112.072 73.2159 111.581 73.0568 111.165C72.9015 110.748 72.6705 110.424 72.3636 110.193C72.0606 109.962 71.6875 109.847 71.2443 109.847C70.786 109.847 70.4034 109.966 70.0966 110.205C69.7898 110.443 69.5587 110.773 69.4034 111.193C69.2481 111.614 69.1705 112.095 69.1705 112.636C69.1705 113.182 69.2481 113.669 69.4034 114.097C69.5625 114.521 69.7955 114.856 70.1023 115.102C70.4129 115.345 70.7936 115.466 71.2443 115.466ZM77.5099 117V108.273H79.5668V117H77.5099ZM78.544 107.034C78.2183 107.034 77.938 106.926 77.7031 106.71C77.4683 106.491 77.3509 106.227 77.3509 105.92C77.3509 105.61 77.4683 105.347 77.7031 105.131C77.938 104.911 78.2183 104.801 78.544 104.801C78.8736 104.801 79.1539 104.911 79.3849 105.131C79.6198 105.347 79.7372 105.61 79.7372 105.92C79.7372 106.227 79.6198 106.491 79.3849 106.71C79.1539 106.926 78.8736 107.034 78.544 107.034ZM83.7386 111.886V117H81.6818V108.273H83.6477V109.756H83.75C83.9508 109.267 84.2708 108.879 84.7102 108.591C85.1534 108.303 85.7008 108.159 86.3523 108.159C86.9545 108.159 87.4792 108.288 87.9261 108.545C88.3769 108.803 88.7254 109.176 88.9716 109.665C89.2216 110.153 89.3447 110.746 89.3409 111.443V117H87.2841V111.761C87.2841 111.178 87.1326 110.722 86.8295 110.392C86.5303 110.062 86.1155 109.898 85.5852 109.898C85.2254 109.898 84.9053 109.977 84.625 110.136C84.3485 110.292 84.1307 110.517 83.9716 110.812C83.8163 111.108 83.7386 111.466 83.7386 111.886ZM93.9432 117.176C93.3902 117.176 92.892 117.078 92.4489 116.881C92.0095 116.68 91.661 116.384 91.4034 115.994C91.1496 115.604 91.0227 115.123 91.0227 114.551C91.0227 114.059 91.1136 113.652 91.2955 113.33C91.4773 113.008 91.7254 112.75 92.0398 112.557C92.3542 112.364 92.7083 112.218 93.1023 112.119C93.5 112.017 93.911 111.943 94.3352 111.898C94.8466 111.845 95.2614 111.797 95.5795 111.756C95.8977 111.71 96.1288 111.642 96.2727 111.551C96.4205 111.456 96.4943 111.311 96.4943 111.114V111.08C96.4943 110.652 96.3674 110.32 96.1136 110.085C95.8598 109.85 95.4943 109.733 95.017 109.733C94.5133 109.733 94.1136 109.843 93.8182 110.062C93.5265 110.282 93.3295 110.542 93.2273 110.841L91.3068 110.568C91.4583 110.038 91.7083 109.595 92.0568 109.239C92.4053 108.879 92.8314 108.61 93.3352 108.432C93.839 108.25 94.3958 108.159 95.0057 108.159C95.4261 108.159 95.8447 108.208 96.2614 108.307C96.678 108.405 97.0587 108.568 97.4034 108.795C97.7481 109.019 98.0246 109.324 98.233 109.71C98.4451 110.097 98.5511 110.58 98.5511 111.159V117H96.5739V115.801H96.5057C96.3807 116.044 96.2045 116.271 95.9773 116.483C95.7538 116.691 95.4716 116.86 95.1307 116.989C94.7936 117.114 94.3977 117.176 93.9432 117.176ZM94.4773 115.665C94.8902 115.665 95.2481 115.583 95.5511 115.42C95.8542 115.254 96.0871 115.034 96.25 114.761C96.4167 114.489 96.5 114.191 96.5 113.869V112.841C96.4356 112.894 96.3258 112.943 96.1705 112.989C96.0189 113.034 95.8485 113.074 95.6591 113.108C95.4697 113.142 95.2822 113.172 95.0966 113.199C94.911 113.225 94.75 113.248 94.6136 113.267C94.3068 113.309 94.0322 113.377 93.7898 113.472C93.5473 113.566 93.3561 113.699 93.2159 113.869C93.0758 114.036 93.0057 114.252 93.0057 114.517C93.0057 114.896 93.1439 115.182 93.4205 115.375C93.697 115.568 94.0492 115.665 94.4773 115.665ZM102.676 105.364V117H100.619V105.364H102.676ZM111.689 110.58L109.814 110.784C109.761 110.595 109.668 110.417 109.536 110.25C109.407 110.083 109.232 109.949 109.013 109.847C108.793 109.744 108.524 109.693 108.206 109.693C107.778 109.693 107.418 109.786 107.126 109.972C106.839 110.157 106.696 110.398 106.7 110.693C106.696 110.947 106.789 111.153 106.979 111.312C107.172 111.472 107.49 111.602 107.933 111.705L109.422 112.023C110.248 112.201 110.861 112.483 111.263 112.869C111.668 113.256 111.873 113.761 111.876 114.386C111.873 114.936 111.712 115.42 111.393 115.841C111.079 116.258 110.642 116.583 110.081 116.818C109.52 117.053 108.876 117.17 108.149 117.17C107.081 117.17 106.221 116.947 105.57 116.5C104.918 116.049 104.53 115.422 104.405 114.619L106.411 114.426C106.501 114.82 106.695 115.117 106.99 115.318C107.286 115.519 107.67 115.619 108.143 115.619C108.632 115.619 109.024 115.519 109.32 115.318C109.619 115.117 109.768 114.869 109.768 114.574C109.768 114.324 109.672 114.117 109.479 113.955C109.289 113.792 108.994 113.667 108.592 113.58L107.104 113.267C106.267 113.093 105.647 112.799 105.246 112.386C104.844 111.97 104.645 111.443 104.649 110.807C104.645 110.269 104.791 109.803 105.087 109.409C105.386 109.011 105.801 108.705 106.331 108.489C106.865 108.269 107.481 108.159 108.178 108.159C109.2 108.159 110.005 108.377 110.592 108.812C111.183 109.248 111.549 109.837 111.689 110.58ZM120.081 117L116.797 105.364H119.064L121.161 113.915H121.268L123.507 105.364H125.57L127.814 113.92H127.916L130.013 105.364H132.28L128.996 117H126.916L124.587 108.835H124.496L122.161 117H120.081ZM135.271 117.176C134.718 117.176 134.22 117.078 133.777 116.881C133.338 116.68 132.989 116.384 132.732 115.994C132.478 115.604 132.351 115.123 132.351 114.551C132.351 114.059 132.442 113.652 132.624 113.33C132.805 113.008 133.054 112.75 133.368 112.557C133.682 112.364 134.036 112.218 134.43 112.119C134.828 112.017 135.239 111.943 135.663 111.898C136.175 111.845 136.589 111.797 136.908 111.756C137.226 111.71 137.457 111.642 137.601 111.551C137.749 111.456 137.822 111.311 137.822 111.114V111.08C137.822 110.652 137.696 110.32 137.442 110.085C137.188 109.85 136.822 109.733 136.345 109.733C135.841 109.733 135.442 109.843 135.146 110.062C134.855 110.282 134.658 110.542 134.555 110.841L132.635 110.568C132.786 110.038 133.036 109.595 133.385 109.239C133.733 108.879 134.16 108.61 134.663 108.432C135.167 108.25 135.724 108.159 136.334 108.159C136.754 108.159 137.173 108.208 137.589 108.307C138.006 108.405 138.387 108.568 138.732 108.795C139.076 109.019 139.353 109.324 139.561 109.71C139.773 110.097 139.879 110.58 139.879 111.159V117H137.902V115.801H137.834C137.709 116.044 137.533 116.271 137.305 116.483C137.082 116.691 136.8 116.86 136.459 116.989C136.122 117.114 135.726 117.176 135.271 117.176ZM135.805 115.665C136.218 115.665 136.576 115.583 136.879 115.42C137.182 115.254 137.415 115.034 137.578 114.761C137.745 114.489 137.828 114.191 137.828 113.869V112.841C137.764 112.894 137.654 112.943 137.499 112.989C137.347 113.034 137.177 113.074 136.987 113.108C136.798 113.142 136.61 113.172 136.425 113.199C136.239 113.225 136.078 113.248 135.942 113.267C135.635 113.309 135.36 113.377 135.118 113.472C134.875 113.566 134.684 113.699 134.544 113.869C134.404 114.036 134.334 114.252 134.334 114.517C134.334 114.896 134.472 115.182 134.749 115.375C135.025 115.568 135.377 115.665 135.805 115.665ZM144.004 105.364V117H141.947V105.364H144.004ZM148.176 105.364V117H146.119V105.364H148.176ZM154.155 117.17C153.28 117.17 152.524 116.989 151.888 116.625C151.255 116.258 150.768 115.739 150.428 115.068C150.087 114.394 149.916 113.6 149.916 112.688C149.916 111.79 150.087 111.002 150.428 110.324C150.772 109.642 151.253 109.112 151.871 108.733C152.488 108.35 153.214 108.159 154.047 108.159C154.585 108.159 155.092 108.246 155.57 108.42C156.051 108.591 156.475 108.856 156.842 109.216C157.214 109.576 157.505 110.034 157.717 110.591C157.929 111.144 158.036 111.803 158.036 112.568V113.199H150.882V111.812H156.064C156.06 111.419 155.975 111.068 155.808 110.761C155.642 110.451 155.409 110.206 155.109 110.028C154.814 109.85 154.469 109.761 154.075 109.761C153.655 109.761 153.286 109.864 152.967 110.068C152.649 110.269 152.401 110.534 152.223 110.864C152.049 111.189 151.96 111.547 151.956 111.938V113.148C151.956 113.655 152.049 114.091 152.234 114.455C152.42 114.814 152.679 115.091 153.013 115.284C153.346 115.473 153.736 115.568 154.183 115.568C154.482 115.568 154.753 115.527 154.996 115.443C155.238 115.356 155.448 115.229 155.626 115.062C155.804 114.896 155.939 114.689 156.03 114.443L157.95 114.659C157.829 115.167 157.598 115.61 157.257 115.989C156.92 116.364 156.488 116.655 155.962 116.864C155.435 117.068 154.833 117.17 154.155 117.17ZM164.134 108.273V109.864H159.116V108.273H164.134ZM160.355 106.182H162.412V114.375C162.412 114.652 162.454 114.864 162.537 115.011C162.624 115.155 162.738 115.254 162.878 115.307C163.018 115.36 163.173 115.386 163.344 115.386C163.473 115.386 163.59 115.377 163.696 115.358C163.806 115.339 163.889 115.322 163.946 115.307L164.293 116.915C164.183 116.953 164.026 116.994 163.821 117.04C163.62 117.085 163.374 117.112 163.082 117.119C162.567 117.134 162.103 117.057 161.69 116.886C161.277 116.712 160.95 116.443 160.707 116.08C160.469 115.716 160.351 115.261 160.355 114.716V106.182Z" fill="white"/>
<defs>
<filter id="filter0_d_4944_1107" x="95.3804" y="54.9775" width="22.2423" height="22.2422" filterUnits="userSpaceOnUse" color-interpolation-filters="sRGB">
<feFlood flood-opacity="0" result="BackgroundImageFix"/>
<feColorMatrix in="SourceAlpha" type="matrix" values="0 0 0 0 0 0 0 0 0 0 0 0 0 0 0 0 0 0 127 0" result="hardAlpha"/>
<feOffset dy="1.09814"/>
<feGaussianBlur stdDeviation="0.549072"/>
<feComposite in2="hardAlpha" operator="out"/>
<feColorMatrix type="matrix" values="0 0 0 0 0 0 0 0 0 0 0 0 0 0 0 0 0 0 0.25 0"/>
<feBlend mode="normal" in2="BackgroundImageFix" result="effect1_dropShadow_4944_1107"/>
<feBlend mode="normal" in="SourceGraphic" in2="effect1_dropShadow_4944_1107" result="shape"/>
</filter>
<linearGradient id="paint0_linear_4944_1107" x1="61.0197" y1="65.2463" x2="106.746" y2="110.973" gradientUnits="userSpaceOnUse">
<stop stop-color="white"/>
<stop offset="1" stop-color="#C5B6FF"/>
</linearGradient>
<linearGradient id="paint1_linear_4944_1107" x1="74.4379" y1="65.1733" x2="106.674" y2="97.4097" gradientUnits="userSpaceOnUse">
<stop stop-color="white"/>
<stop offset="1" stop-color="#E6E0FF"/>
</linearGradient>
<linearGradient id="paint2_linear_4944_1107" x1="87.5078" y1="65.1034" x2="106.604" y2="84.1999" gradientUnits="userSpaceOnUse">
<stop stop-color="white"/>
<stop offset="1" stop-color="#D7D0F5"/>
</linearGradient>
<clipPath id="clip0_4944_1107">
<rect width="48" height="48" fill="white" transform="translate(82.5 41)"/>
</clipPath>
</defs>
</svg>
