<svg width="215" height="157" viewBox="0 0 215 157" fill="none" xmlns="http://www.w3.org/2000/svg">
<rect width="215" height="157" rx="24" fill="#101010" fill-opacity="0.01"/>
<path d="M100.696 65.002L97.2366 68.4611L104.04 75.2649L107.499 71.8057L100.696 65.002Z" fill="white"/>
<path d="M128.659 43.843C127.758 42.942 126.689 42.2272 125.512 41.7396C124.335 41.252 123.073 41.001 121.799 41.001C120.525 41.001 119.263 41.252 118.086 41.7396C116.909 42.2272 115.839 42.942 114.938 43.843L107.501 51.2801L100.064 43.843C98.2446 42.0234 95.7768 41.0012 93.2035 41.0012C90.6303 41.0012 88.1625 42.0234 86.343 43.843C84.5234 45.6626 83.5012 48.1304 83.5012 50.7036C83.5012 53.2769 84.5234 55.7448 86.343 57.5643L93.78 65.0014L97.2386 61.5451L89.8016 54.1056C88.9324 53.1966 88.4534 51.9835 88.4675 50.7258C88.4815 49.4682 88.9873 48.266 89.8766 47.3767C90.766 46.4874 91.9681 45.9815 93.2257 45.9675C94.4833 45.9535 95.6965 46.4324 96.6054 47.3017L107.501 58.1976L118.397 47.3017C119.306 46.4324 120.519 45.9535 121.776 45.9675C123.034 45.9815 124.236 46.4874 125.126 47.3767C126.015 48.266 126.521 49.4682 126.535 50.7258C126.549 51.9835 126.07 53.1966 125.201 54.1056L107.501 71.8053L110.96 75.264L128.659 57.5643C129.56 56.6634 130.275 55.5938 130.763 54.4166C131.25 53.2395 131.501 51.9778 131.501 50.7036C131.501 49.4295 131.25 48.1678 130.763 46.9906C130.275 45.8135 129.56 44.7439 128.659 43.843Z" fill="white"/>
<path d="M86.3413 86.1583C87.2422 87.0593 88.3117 87.774 89.4889 88.2617C90.666 88.7493 91.9277 89.0003 93.2018 89.0003C94.4759 89.0003 95.7376 88.7493 96.9147 88.2617C98.0919 87.774 99.1615 87.0593 100.062 86.1583L107.499 78.7212L114.936 86.1583C116.756 87.9779 119.224 89.0001 121.797 89.0001C124.37 89.0001 126.838 87.9779 128.658 86.1583C130.477 84.3388 131.499 81.8709 131.499 79.2976C131.499 76.7244 130.477 74.2566 128.658 72.437L121.221 64.9999L117.762 68.4586L125.199 75.8957C126.068 76.8047 126.547 78.0178 126.533 79.2755C126.519 80.5331 126.013 81.7353 125.124 82.6246C124.235 83.5139 123.032 84.0197 121.775 84.0338C120.517 84.0477 119.304 83.5688 118.395 82.6996L107.499 71.8037L96.6037 82.6996C95.6948 83.5688 94.4816 84.0477 93.224 84.0338C91.9664 84.0197 90.7642 83.5139 89.8749 82.6246C88.9856 81.7353 88.4798 80.5331 88.4658 79.2755C88.4517 78.0178 88.9306 76.8047 89.7999 75.8957L107.499 58.196L104.043 54.7373L86.3413 72.437C85.4402 73.3379 84.7255 74.4075 84.2379 75.5846C83.7502 76.7618 83.4993 78.0234 83.4993 79.2976C83.4993 80.5718 83.7502 81.8335 84.2379 83.0106C84.7255 84.1878 85.4402 85.2574 86.3413 86.1583Z" fill="white"/>
<path d="M110.958 54.7373L107.499 58.1965L114.303 65.0003L117.762 61.5412L110.958 54.7373Z" fill="white"/>
<path opacity="0.5" d="M56.9091 105.364L59.4716 109.625H59.5625L62.1364 105.364H64.5398L60.9545 111.182L64.5966 117H62.1534L59.5625 112.767H59.4716L56.8807 117H54.4489L58.125 111.182L54.4943 105.364H56.9091ZM73.8991 108.273L70.7912 117H68.5185L65.4105 108.273H67.6037L69.6094 114.756H69.7003L71.7116 108.273H73.8991ZM78.8892 117.17C78.0142 117.17 77.2585 116.989 76.6222 116.625C75.9896 116.258 75.5028 115.739 75.1619 115.068C74.821 114.394 74.6506 113.6 74.6506 112.688C74.6506 111.79 74.821 111.002 75.1619 110.324C75.5066 109.642 75.9877 109.112 76.6051 108.733C77.2225 108.35 77.9479 108.159 78.7812 108.159C79.3191 108.159 79.8267 108.246 80.304 108.42C80.785 108.591 81.2093 108.856 81.5767 109.216C81.9479 109.576 82.2396 110.034 82.4517 110.591C82.6638 111.144 82.7699 111.803 82.7699 112.568V113.199H75.6165V111.812H80.7983C80.7945 111.419 80.7093 111.068 80.5426 110.761C80.3759 110.451 80.143 110.206 79.8438 110.028C79.5483 109.85 79.2036 109.761 78.8097 109.761C78.3892 109.761 78.0199 109.864 77.7017 110.068C77.3835 110.269 77.1354 110.534 76.9574 110.864C76.7831 111.189 76.6941 111.547 76.6903 111.938V113.148C76.6903 113.655 76.7831 114.091 76.9688 114.455C77.1544 114.814 77.4138 115.091 77.7472 115.284C78.0805 115.473 78.4706 115.568 78.9176 115.568C79.2169 115.568 79.4877 115.527 79.7301 115.443C79.9725 115.356 80.1828 115.229 80.3608 115.062C80.5388 114.896 80.6733 114.689 80.7642 114.443L82.6847 114.659C82.5634 115.167 82.3324 115.61 81.9915 115.989C81.6544 116.364 81.2225 116.655 80.696 116.864C80.1695 117.068 79.5672 117.17 78.8892 117.17ZM84.5099 117V108.273H86.5043V109.727H86.5952C86.7543 109.223 87.027 108.835 87.4134 108.562C87.8035 108.286 88.2486 108.148 88.7486 108.148C88.8622 108.148 88.9891 108.153 89.1293 108.165C89.2732 108.172 89.3925 108.186 89.4872 108.205V110.097C89.4001 110.066 89.2618 110.04 89.0724 110.017C88.8868 109.991 88.7069 109.977 88.5327 109.977C88.1577 109.977 87.8205 110.059 87.5213 110.222C87.2259 110.381 86.9929 110.602 86.8224 110.886C86.652 111.17 86.5668 111.498 86.5668 111.869V117H84.5099ZM97.7514 110.58L95.8764 110.784C95.8234 110.595 95.7306 110.417 95.598 110.25C95.4692 110.083 95.295 109.949 95.0753 109.847C94.8556 109.744 94.5866 109.693 94.2685 109.693C93.8404 109.693 93.4806 109.786 93.1889 109.972C92.901 110.157 92.759 110.398 92.7628 110.693C92.759 110.947 92.8518 111.153 93.0412 111.312C93.2344 111.472 93.5526 111.602 93.9957 111.705L95.4844 112.023C96.3101 112.201 96.9238 112.483 97.3253 112.869C97.7306 113.256 97.9351 113.761 97.9389 114.386C97.9351 114.936 97.7741 115.42 97.456 115.841C97.1416 116.258 96.7041 116.583 96.1435 116.818C95.5829 117.053 94.9389 117.17 94.2116 117.17C93.1435 117.17 92.2836 116.947 91.6321 116.5C90.9806 116.049 90.5923 115.422 90.4673 114.619L92.473 114.426C92.5639 114.82 92.7571 115.117 93.0526 115.318C93.348 115.519 93.7325 115.619 94.206 115.619C94.6946 115.619 95.0866 115.519 95.3821 115.318C95.6813 115.117 95.831 114.869 95.831 114.574C95.831 114.324 95.7344 114.117 95.5412 113.955C95.3518 113.792 95.0563 113.667 94.6548 113.58L93.1662 113.267C92.3291 113.093 91.7098 112.799 91.3082 112.386C90.9067 111.97 90.7079 111.443 90.7116 110.807C90.7079 110.269 90.8537 109.803 91.1491 109.409C91.4484 109.011 91.8632 108.705 92.3935 108.489C92.9276 108.269 93.5431 108.159 94.2401 108.159C95.2628 108.159 96.0677 108.377 96.6548 108.812C97.2457 109.248 97.6113 109.837 97.7514 110.58ZM103.499 117.17C102.624 117.17 101.868 116.989 101.232 116.625C100.599 116.258 100.112 115.739 99.7713 115.068C99.4304 114.394 99.2599 113.6 99.2599 112.688C99.2599 111.79 99.4304 111.002 99.7713 110.324C100.116 109.642 100.597 109.112 101.214 108.733C101.832 108.35 102.557 108.159 103.391 108.159C103.929 108.159 104.436 108.246 104.913 108.42C105.394 108.591 105.819 108.856 106.186 109.216C106.557 109.576 106.849 110.034 107.061 110.591C107.273 111.144 107.379 111.803 107.379 112.568V113.199H100.226V111.812H105.408C105.404 111.419 105.319 111.068 105.152 110.761C104.985 110.451 104.752 110.206 104.453 110.028C104.158 109.85 103.813 109.761 103.419 109.761C102.999 109.761 102.629 109.864 102.311 110.068C101.993 110.269 101.745 110.534 101.567 110.864C101.393 111.189 101.304 111.547 101.3 111.938V113.148C101.3 113.655 101.393 114.091 101.578 114.455C101.764 114.814 102.023 115.091 102.357 115.284C102.69 115.473 103.08 115.568 103.527 115.568C103.826 115.568 104.097 115.527 104.339 115.443C104.582 115.356 104.792 115.229 104.97 115.062C105.148 114.896 105.283 114.689 105.374 114.443L107.294 114.659C107.173 115.167 106.942 115.61 106.601 115.989C106.264 116.364 105.832 116.655 105.305 116.864C104.779 117.068 104.177 117.17 103.499 117.17ZM115.628 117L112.344 105.364H114.611L116.707 113.915H116.815L119.054 105.364H121.116L123.361 113.92H123.463L125.56 105.364H127.827L124.543 117H122.463L120.134 108.835H120.043L117.707 117H115.628ZM130.818 117.176C130.265 117.176 129.767 117.078 129.324 116.881C128.884 116.68 128.536 116.384 128.278 115.994C128.025 115.604 127.898 115.123 127.898 114.551C127.898 114.059 127.989 113.652 128.17 113.33C128.352 113.008 128.6 112.75 128.915 112.557C129.229 112.364 129.583 112.218 129.977 112.119C130.375 112.017 130.786 111.943 131.21 111.898C131.722 111.845 132.136 111.797 132.455 111.756C132.773 111.71 133.004 111.642 133.148 111.551C133.295 111.456 133.369 111.311 133.369 111.114V111.08C133.369 110.652 133.242 110.32 132.989 110.085C132.735 109.85 132.369 109.733 131.892 109.733C131.388 109.733 130.989 109.843 130.693 110.062C130.402 110.282 130.205 110.542 130.102 110.841L128.182 110.568C128.333 110.038 128.583 109.595 128.932 109.239C129.28 108.879 129.706 108.61 130.21 108.432C130.714 108.25 131.271 108.159 131.881 108.159C132.301 108.159 132.72 108.208 133.136 108.307C133.553 108.405 133.934 108.568 134.278 108.795C134.623 109.019 134.9 109.324 135.108 109.71C135.32 110.097 135.426 110.58 135.426 111.159V117H133.449V115.801H133.381C133.256 116.044 133.08 116.271 132.852 116.483C132.629 116.691 132.347 116.86 132.006 116.989C131.669 117.114 131.273 117.176 130.818 117.176ZM131.352 115.665C131.765 115.665 132.123 115.583 132.426 115.42C132.729 115.254 132.962 115.034 133.125 114.761C133.292 114.489 133.375 114.191 133.375 113.869V112.841C133.311 112.894 133.201 112.943 133.045 112.989C132.894 113.034 132.723 113.074 132.534 113.108C132.345 113.142 132.157 113.172 131.972 113.199C131.786 113.225 131.625 113.248 131.489 113.267C131.182 113.309 130.907 113.377 130.665 113.472C130.422 113.566 130.231 113.699 130.091 113.869C129.951 114.036 129.881 114.252 129.881 114.517C129.881 114.896 130.019 115.182 130.295 115.375C130.572 115.568 130.924 115.665 131.352 115.665ZM139.551 105.364V117H137.494V105.364H139.551ZM143.723 105.364V117H141.666V105.364H143.723ZM149.702 117.17C148.827 117.17 148.071 116.989 147.435 116.625C146.802 116.258 146.315 115.739 145.974 115.068C145.634 114.394 145.463 113.6 145.463 112.688C145.463 111.79 145.634 111.002 145.974 110.324C146.319 109.642 146.8 109.112 147.418 108.733C148.035 108.35 148.76 108.159 149.594 108.159C150.132 108.159 150.639 108.246 151.116 108.42C151.598 108.591 152.022 108.856 152.389 109.216C152.76 109.576 153.052 110.034 153.264 110.591C153.476 111.144 153.582 111.803 153.582 112.568V113.199H146.429V111.812H151.611C151.607 111.419 151.522 111.068 151.355 110.761C151.188 110.451 150.955 110.206 150.656 110.028C150.361 109.85 150.016 109.761 149.622 109.761C149.202 109.761 148.832 109.864 148.514 110.068C148.196 110.269 147.948 110.534 147.77 110.864C147.596 111.189 147.507 111.547 147.503 111.938V113.148C147.503 113.655 147.596 114.091 147.781 114.455C147.967 114.814 148.226 115.091 148.56 115.284C148.893 115.473 149.283 115.568 149.73 115.568C150.029 115.568 150.3 115.527 150.543 115.443C150.785 115.356 150.995 115.229 151.173 115.062C151.351 114.896 151.486 114.689 151.577 114.443L153.497 114.659C153.376 115.167 153.145 115.61 152.804 115.989C152.467 116.364 152.035 116.655 151.509 116.864C150.982 117.068 150.38 117.17 149.702 117.17ZM159.68 108.273V109.864H154.663V108.273H159.68ZM155.902 106.182H157.959V114.375C157.959 114.652 158 114.864 158.084 115.011C158.171 115.155 158.285 115.254 158.425 115.307C158.565 115.36 158.72 115.386 158.891 115.386C159.019 115.386 159.137 115.377 159.243 115.358C159.353 115.339 159.436 115.322 159.493 115.307L159.839 116.915C159.73 116.953 159.572 116.994 159.368 117.04C159.167 117.085 158.921 117.112 158.629 117.119C158.114 117.134 157.65 117.057 157.237 116.886C156.824 116.712 156.497 116.443 156.254 116.08C156.016 115.716 155.898 115.261 155.902 114.716V106.182Z" fill="white"/>
</svg>
