<svg width="215" height="157" viewBox="0 0 215 157" fill="none" xmlns="http://www.w3.org/2000/svg">
<rect width="215" height="157" rx="24" fill="#101010" fill-opacity="0.01"/>
<g clip-path="url(#clip0_4944_1190)">
<mask id="mask0_4944_1190" style="mask-type:luminance" maskUnits="userSpaceOnUse" x="78" y="37" width="329" height="48">
<path d="M406.972 37H78.7143V85H406.972V37Z" fill="white"/>
</mask>
<g mask="url(#mask0_4944_1190)">
<mask id="mask1_4944_1190" style="mask-type:luminance" maskUnits="userSpaceOnUse" x="78" y="37" width="58" height="48">
<path d="M135.434 37H78.7143V85H135.434V37Z" fill="white"/>
</mask>
<g mask="url(#mask1_4944_1190)">
<path fill-rule="evenodd" clip-rule="evenodd" d="M118.544 37.1084H100.687H95.0218C88.6143 37.1084 85.4105 37.1084 83.2797 38.9192C82.9611 39.19 82.6653 39.4866 82.3952 39.806C80.5888 41.9421 80.5888 45.1538 80.5888 51.5773H97.0537L78.7661 82.1928V84.9487H90.9922L118.544 37.1084Z" fill="white"/>
<path d="M114.049 84.9491H101.837L119.274 54.6729V70.5401H135.32C135.32 76.9058 135.32 80.0889 133.544 82.2156C133.256 82.5607 132.938 82.8797 132.594 83.1686C130.472 84.9491 127.297 84.9491 120.947 84.9491H114.049Z" fill="white"/>
</g>
</g>
</g>
<path opacity="0.4" d="M71.9318 113V111.688L77.8977 103.131H71.8977V101.364H80.5114V102.676L74.5511 111.233H80.5455V113H71.9318ZM86.3011 113.17C85.4489 113.17 84.7102 112.983 84.0852 112.608C83.4602 112.233 82.9754 111.708 82.6307 111.034C82.2898 110.36 82.1193 109.572 82.1193 108.67C82.1193 107.769 82.2898 106.979 82.6307 106.301C82.9754 105.623 83.4602 105.097 84.0852 104.722C84.7102 104.347 85.4489 104.159 86.3011 104.159C87.1534 104.159 87.892 104.347 88.517 104.722C89.142 105.097 89.625 105.623 89.9659 106.301C90.3106 106.979 90.483 107.769 90.483 108.67C90.483 109.572 90.3106 110.36 89.9659 111.034C89.625 111.708 89.142 112.233 88.517 112.608C87.892 112.983 87.1534 113.17 86.3011 113.17ZM86.3125 111.523C86.7746 111.523 87.161 111.396 87.4716 111.142C87.7822 110.884 88.0133 110.54 88.1648 110.108C88.3201 109.676 88.3977 109.195 88.3977 108.665C88.3977 108.131 88.3201 107.648 88.1648 107.216C88.0133 106.78 87.7822 106.434 87.4716 106.176C87.161 105.919 86.7746 105.79 86.3125 105.79C85.839 105.79 85.4451 105.919 85.1307 106.176C84.8201 106.434 84.5871 106.78 84.4318 107.216C84.2803 107.648 84.2045 108.131 84.2045 108.665C84.2045 109.195 84.2803 109.676 84.4318 110.108C84.5871 110.54 84.8201 110.884 85.1307 111.142C85.4451 111.396 85.839 111.523 86.3125 111.523ZM96.0241 116.455C95.2855 116.455 94.651 116.354 94.1207 116.153C93.5904 115.956 93.1643 115.691 92.8423 115.358C92.5204 115.025 92.2969 114.655 92.1719 114.25L94.0241 113.801C94.1075 113.972 94.2287 114.14 94.3878 114.307C94.5469 114.477 94.7609 114.617 95.0298 114.727C95.3026 114.841 95.6454 114.898 96.0582 114.898C96.6416 114.898 97.1245 114.756 97.5071 114.472C97.8897 114.191 98.081 113.729 98.081 113.085V111.432H97.9787C97.8726 111.644 97.7173 111.862 97.5128 112.085C97.312 112.309 97.045 112.496 96.7116 112.648C96.3821 112.799 95.9673 112.875 95.4673 112.875C94.7969 112.875 94.1889 112.718 93.6435 112.403C93.1018 112.085 92.67 111.612 92.348 110.983C92.0298 110.35 91.8707 109.559 91.8707 108.608C91.8707 107.65 92.0298 106.841 92.348 106.182C92.67 105.519 93.1037 105.017 93.6491 104.676C94.1946 104.331 94.8026 104.159 95.473 104.159C95.9844 104.159 96.4048 104.246 96.7344 104.42C97.0677 104.591 97.3329 104.797 97.5298 105.04C97.7268 105.278 97.8764 105.504 97.9787 105.716H98.0923V104.273H100.121V113.142C100.121 113.888 99.9427 114.506 99.5866 114.994C99.2306 115.483 98.7438 115.848 98.1264 116.091C97.509 116.333 96.8082 116.455 96.0241 116.455ZM96.0412 111.261C96.4768 111.261 96.848 111.155 97.1548 110.943C97.4616 110.731 97.6946 110.426 97.8537 110.028C98.0128 109.631 98.0923 109.153 98.0923 108.597C98.0923 108.047 98.0128 107.566 97.8537 107.153C97.6984 106.741 97.4673 106.42 97.1605 106.193C96.8575 105.962 96.4844 105.847 96.0412 105.847C95.5829 105.847 95.2003 105.966 94.8935 106.205C94.5866 106.443 94.3556 106.771 94.2003 107.188C94.045 107.6 93.9673 108.07 93.9673 108.597C93.9673 109.131 94.045 109.598 94.2003 110C94.3594 110.398 94.5923 110.708 94.8991 110.932C95.2098 111.152 95.5904 111.261 96.0412 111.261ZM102.229 113V104.273H104.286V113H102.229ZM103.263 103.034C102.937 103.034 102.657 102.926 102.422 102.71C102.187 102.491 102.07 102.227 102.07 101.92C102.07 101.61 102.187 101.347 102.422 101.131C102.657 100.911 102.937 100.801 103.263 100.801C103.592 100.801 103.873 100.911 104.104 101.131C104.339 101.347 104.456 101.61 104.456 101.92C104.456 102.227 104.339 102.491 104.104 102.71C103.873 102.926 103.592 103.034 103.263 103.034ZM106.491 113V101.364H108.599V111.233H113.724V113H106.491ZM117.974 113.176C117.421 113.176 116.923 113.078 116.48 112.881C116.041 112.68 115.692 112.384 115.435 111.994C115.181 111.604 115.054 111.123 115.054 110.551C115.054 110.059 115.145 109.652 115.327 109.33C115.509 109.008 115.757 108.75 116.071 108.557C116.385 108.364 116.74 108.218 117.134 108.119C117.531 108.017 117.942 107.943 118.366 107.898C118.878 107.845 119.293 107.797 119.611 107.756C119.929 107.71 120.16 107.642 120.304 107.551C120.452 107.456 120.526 107.311 120.526 107.114V107.08C120.526 106.652 120.399 106.32 120.145 106.085C119.891 105.85 119.526 105.733 119.048 105.733C118.545 105.733 118.145 105.843 117.849 106.062C117.558 106.282 117.361 106.542 117.259 106.841L115.338 106.568C115.49 106.038 115.74 105.595 116.088 105.239C116.437 104.879 116.863 104.61 117.366 104.432C117.87 104.25 118.427 104.159 119.037 104.159C119.457 104.159 119.876 104.208 120.293 104.307C120.709 104.405 121.09 104.568 121.435 104.795C121.779 105.019 122.056 105.324 122.264 105.71C122.476 106.097 122.582 106.58 122.582 107.159V113H120.605V111.801H120.537C120.412 112.044 120.236 112.271 120.009 112.483C119.785 112.691 119.503 112.86 119.162 112.989C118.825 113.114 118.429 113.176 117.974 113.176ZM118.509 111.665C118.921 111.665 119.279 111.583 119.582 111.42C119.885 111.254 120.118 111.034 120.281 110.761C120.448 110.489 120.531 110.191 120.531 109.869V108.841C120.467 108.894 120.357 108.943 120.202 108.989C120.05 109.034 119.88 109.074 119.69 109.108C119.501 109.142 119.313 109.172 119.128 109.199C118.942 109.225 118.781 109.248 118.645 109.267C118.338 109.309 118.063 109.377 117.821 109.472C117.579 109.566 117.387 109.699 117.247 109.869C117.107 110.036 117.037 110.252 117.037 110.517C117.037 110.896 117.175 111.182 117.452 111.375C117.728 111.568 118.08 111.665 118.509 111.665ZM124.741 113V101.364H126.798V105.716H126.884C126.99 105.504 127.139 105.278 127.332 105.04C127.526 104.797 127.787 104.591 128.116 104.42C128.446 104.246 128.866 104.159 129.378 104.159C130.052 104.159 130.66 104.331 131.202 104.676C131.747 105.017 132.179 105.523 132.497 106.193C132.819 106.86 132.98 107.678 132.98 108.648C132.98 109.606 132.823 110.42 132.509 111.091C132.194 111.761 131.766 112.273 131.224 112.625C130.683 112.977 130.069 113.153 129.384 113.153C128.884 113.153 128.469 113.07 128.139 112.903C127.81 112.737 127.545 112.536 127.344 112.301C127.147 112.062 126.993 111.837 126.884 111.625H126.764V113H124.741ZM126.759 108.636C126.759 109.201 126.838 109.695 126.997 110.119C127.16 110.544 127.393 110.875 127.696 111.114C128.003 111.348 128.374 111.466 128.81 111.466C129.264 111.466 129.645 111.345 129.952 111.102C130.259 110.856 130.49 110.521 130.645 110.097C130.804 109.669 130.884 109.182 130.884 108.636C130.884 108.095 130.806 107.614 130.651 107.193C130.495 106.773 130.264 106.443 129.957 106.205C129.651 105.966 129.268 105.847 128.81 105.847C128.37 105.847 127.997 105.962 127.69 106.193C127.384 106.424 127.151 106.748 126.991 107.165C126.836 107.581 126.759 108.072 126.759 108.636ZM141.626 106.58L139.751 106.784C139.698 106.595 139.606 106.417 139.473 106.25C139.344 106.083 139.17 105.949 138.95 105.847C138.731 105.744 138.462 105.693 138.143 105.693C137.715 105.693 137.356 105.786 137.064 105.972C136.776 106.157 136.634 106.398 136.638 106.693C136.634 106.947 136.727 107.153 136.916 107.312C137.109 107.472 137.428 107.602 137.871 107.705L139.359 108.023C140.185 108.201 140.799 108.483 141.2 108.869C141.606 109.256 141.81 109.761 141.814 110.386C141.81 110.936 141.649 111.42 141.331 111.841C141.017 112.258 140.579 112.583 140.018 112.818C139.458 113.053 138.814 113.17 138.087 113.17C137.018 113.17 136.159 112.947 135.507 112.5C134.856 112.049 134.467 111.422 134.342 110.619L136.348 110.426C136.439 110.82 136.632 111.117 136.928 111.318C137.223 111.519 137.607 111.619 138.081 111.619C138.57 111.619 138.962 111.519 139.257 111.318C139.556 111.117 139.706 110.869 139.706 110.574C139.706 110.324 139.609 110.117 139.416 109.955C139.227 109.792 138.931 109.667 138.53 109.58L137.041 109.267C136.204 109.093 135.585 108.799 135.183 108.386C134.782 107.97 134.583 107.443 134.587 106.807C134.583 106.269 134.729 105.803 135.024 105.409C135.323 105.011 135.738 104.705 136.268 104.489C136.803 104.269 137.418 104.159 138.115 104.159C139.138 104.159 139.943 104.377 140.53 104.812C141.121 105.248 141.486 105.837 141.626 106.58Z" fill="white"/>
<defs>
<clipPath id="clip0_4944_1190">
<rect width="56.5714" height="48" fill="white" transform="translate(78.7143 37)"/>
</clipPath>
</defs>
</svg>
