<svg width="20" height="20" viewBox="0 0 20 20" fill="none" xmlns="http://www.w3.org/2000/svg">
    <path d="M10 18.3337C5.39751 18.3337 1.66667 14.6028 1.66667 10.0003C1.66667 5.39783 5.39751 1.66699 10 1.66699C14.6025 1.66699 18.3333 5.39783 18.3333 10.0003C18.3333 14.6028 14.6025 18.3337 10 18.3337ZM10 16.667C11.7681 16.667 13.4638 15.9646 14.7141 14.7144C15.9643 13.4641 16.6667 11.7684 16.6667 10.0003C16.6667 8.23222 15.9643 6.53652 14.7141 5.28628C13.4638 4.03604 11.7681 3.33366 10 3.33366C8.23189 3.33366 6.5362 4.03604 5.28596 5.28628C4.03572 6.53652 3.33334 8.23222 3.33334 10.0003C3.33334 11.7684 4.03572 13.4641 5.28596 14.7144C6.5362 15.9646 8.23189 16.667 10 16.667ZM9.16667 5.83366H10.8333V7.50033H9.16667V5.83366ZM9.16667 9.16699H10.8333V14.167H9.16667V9.16699Z" fill="#1D6DCB"/>
</svg>
