<svg width="20" height="20" viewBox="0 0 20 20" fill="none" xmlns="http://www.w3.org/2000/svg">
<g clip-path="url(#clip0_5522_46240)">
<path d="M9.99984 18.3332C5.40484 18.3332 1.6665 14.5957 1.6665 9.99984C1.6665 5.40484 5.40484 1.6665 9.99984 1.6665C14.5948 1.6665 18.3332 5.40484 18.3332 9.99984C18.3332 14.5957 14.5948 18.3332 9.99984 18.3332ZM9.99984 3.33317C6.324 3.33317 3.33317 6.324 3.33317 9.99984C3.33317 13.6757 6.324 16.6665 9.99984 16.6665C13.6757 16.6665 16.6665 13.6757 16.6665 9.99984C16.6665 6.324 13.6757 3.33317 9.99984 3.33317Z" fill="#D6341E"/>
<path d="M10.8332 5H9.1665V10.8333H10.8332V5Z" fill="#D6341E"/>
<path d="M9.99967 14.3748C10.575 14.3748 11.0413 13.9085 11.0413 13.3332C11.0413 12.7579 10.575 12.2915 9.99967 12.2915C9.42438 12.2915 8.95801 12.7579 8.95801 13.3332C8.95801 13.9085 9.42438 14.3748 9.99967 14.3748Z" fill="#D6341E"/>
</g>
<defs>
<clipPath id="clip0_5522_46240">
<rect width="20" height="20" fill="white"/>
</clipPath>
</defs>
</svg>
