<svg width="20" height="20" viewBox="0 0 20 20" fill="none" xmlns="http://www.w3.org/2000/svg">
<g clip-path="url(#clip0_5522_46229)">
<path d="M9.99984 18.3332C5.40484 18.3332 1.6665 14.5957 1.6665 9.99984C1.6665 5.40567 5.40484 1.6665 9.99984 1.6665C14.5948 1.6665 18.3332 5.40484 18.3332 9.99984C18.3332 14.5957 14.5948 18.3332 9.99984 18.3332ZM9.99984 3.33317C6.324 3.33317 3.33317 6.324 3.33317 9.99984C3.33317 13.6757 6.324 16.6665 9.99984 16.6665C13.6757 16.6665 16.6665 13.6757 16.6665 9.99984C16.6665 6.324 13.6757 3.33317 9.99984 3.33317Z" fill="#EC7F08"/>
<path d="M10.8332 12.5H9.1665V10H9.99984C10.9198 10 11.6665 9.2525 11.6665 8.33333C11.6665 7.41333 10.9198 6.66667 9.99984 6.66667C9.07984 6.66667 8.33317 7.41333 8.33317 8.33333H6.6665C6.6665 6.49583 8.16234 5 9.99984 5C11.8373 5 13.3332 6.49583 13.3332 8.33333C13.3332 9.88333 12.269 11.19 10.8332 11.5625V12.5Z" fill="#EC7F08"/>
<path d="M9.99967 15.2083C10.575 15.2083 11.0413 14.742 11.0413 14.1667C11.0413 13.5914 10.575 13.125 9.99967 13.125C9.42438 13.125 8.95801 13.5914 8.95801 14.1667C8.95801 14.742 9.42438 15.2083 9.99967 15.2083Z" fill="#EC7F08"/>
</g>
<defs>
<clipPath id="clip0_5522_46229">
<rect width="20" height="20" fill="white"/>
</clipPath>
</defs>
</svg>
