<svg width="20" height="20" viewBox="0 0 20 20" fill="none" xmlns="http://www.w3.org/2000/svg">
    <path d="M9.99999 1.66699C14.6025 1.66699 18.3333 5.39783 18.3333 10.0003C18.3333 10.6062 18.2692 11.1962 18.1458 11.7653L16.6608 10.2795C16.722 8.81678 16.2999 7.37462 15.4599 6.17564C14.6198 4.97665 13.4085 4.08752 12.0128 3.64551C10.6171 3.2035 9.11478 3.23318 7.73766 3.72998C6.36055 4.22678 5.18525 5.16307 4.39322 6.3943C3.60118 7.62553 3.23645 9.08324 3.35532 10.5424C3.4742 12.0015 4.07007 13.381 5.05096 14.4678C6.03184 15.5546 7.34319 16.2883 8.78256 16.5556C10.2219 16.823 11.7093 16.6091 13.015 15.947C13.3331 16.4511 13.7806 16.8606 14.3108 17.1328C13.011 17.9204 11.5198 18.3358 9.99999 18.3337C5.39749 18.3337 1.66666 14.6028 1.66666 10.0003C1.66666 5.39783 5.39749 1.66699 9.99999 1.66699ZM15.8333 11.8103L17.0117 12.9887C17.241 13.218 17.3985 13.5092 17.4648 13.8267C17.5311 14.1442 17.5034 14.4741 17.3849 14.776C17.2665 15.078 17.0625 15.3388 16.798 15.5265C16.5335 15.7142 16.22 15.8207 15.8959 15.8329C15.5718 15.845 15.2512 15.7624 14.9733 15.595C14.6955 15.4277 14.4726 15.1829 14.3318 14.8907C14.1911 14.5985 14.1386 14.2715 14.1809 13.95C14.2232 13.6284 14.3584 13.3262 14.57 13.0803L14.655 12.9887L15.8333 11.8103ZM9.99999 12.5003C11.2217 12.5003 12.3208 13.0262 13.0833 13.8645L12.2958 14.5812C11.6375 14.3187 10.8483 14.167 9.99999 14.167C9.15166 14.167 8.36249 14.3195 7.70416 14.5803L6.91666 13.8637C7.30683 13.4336 7.7828 13.0901 8.31387 12.8553C8.84494 12.6205 9.41932 12.4996 9.99999 12.5003ZM7.08332 8.33366C7.41484 8.33366 7.73279 8.46535 7.96721 8.69978C8.20163 8.9342 8.33332 9.25214 8.33332 9.58366C8.33332 9.91518 8.20163 10.2331 7.96721 10.4675C7.73279 10.702 7.41484 10.8337 7.08332 10.8337C6.7518 10.8337 6.43386 10.702 6.19944 10.4675C5.96502 10.2331 5.83332 9.91518 5.83332 9.58366C5.83332 9.25214 5.96502 8.9342 6.19944 8.69978C6.43386 8.46535 6.7518 8.33366 7.08332 8.33366ZM12.9167 8.33366C13.2482 8.33366 13.5661 8.46535 13.8005 8.69978C14.035 8.9342 14.1667 9.25214 14.1667 9.58366C14.1667 9.91518 14.035 10.2331 13.8005 10.4675C13.5661 10.702 13.2482 10.8337 12.9167 10.8337C12.5851 10.8337 12.2672 10.702 12.0328 10.4675C11.7984 10.2331 11.6667 9.91518 11.6667 9.58366C11.6667 9.25214 11.7984 8.9342 12.0328 8.69978C12.2672 8.46535 12.5851 8.33366 12.9167 8.33366Z" fill="#EC7F08"/>
</svg>
