<svg width="24" height="24" viewBox="0 0 24 24" fill="none" xmlns="http://www.w3.org/2000/svg">
<path d="M19 7.42145C18.4357 7.66401 17.8388 7.82516 17.2277 7.8999C17.8719 7.52394 18.3534 6.92832 18.5809 6.22606C17.978 6.57828 17.3183 6.82634 16.6303 6.95949C16.2087 6.51576 15.6612 6.20715 15.059 6.07381C14.4568 5.94047 13.8278 5.98856 13.2538 6.21184C12.6797 6.43511 12.1872 6.82323 11.8403 7.32572C11.4934 7.8282 11.3082 8.4218 11.3087 9.02929C11.3066 9.26117 11.3306 9.49257 11.3804 9.71923C10.1566 9.66007 8.95931 9.34749 7.86665 8.80191C6.774 8.25633 5.81058 7.49002 5.03932 6.55303C4.64288 7.21958 4.52006 8.00998 4.69596 8.76267C4.87186 9.51537 5.3332 10.1735 5.98568 10.6026C5.49866 10.5897 5.02197 10.4616 4.59585 10.2292V10.2622C4.59723 10.9608 4.84294 11.6378 5.2917 12.1791C5.74045 12.7205 6.36489 13.0933 7.06004 13.2349C6.79697 13.3029 6.52588 13.3362 6.25389 13.3339C6.05804 13.3374 5.86237 13.3203 5.67022 13.2829C5.86938 13.8838 6.2528 14.4091 6.76776 14.7868C7.28271 15.1644 7.90389 15.3757 8.54587 15.3917C7.45798 16.2286 6.11685 16.6832 4.73606 16.6831C4.49003 16.6851 4.24414 16.6711 4 16.6411C5.40791 17.5345 7.04901 18.0065 8.72417 17.9999C14.3856 17.9999 17.4806 13.3849 17.4806 9.38476C17.4806 9.25127 17.4806 9.12229 17.47 8.9933C18.0727 8.56515 18.5912 8.0325 19 7.42145Z" fill="white"/>
</svg>
