<svg width="24" height="24" viewBox="0 0 24 24" fill="none" xmlns="http://www.w3.org/2000/svg">
<g clip-path="url(#clip0_5242_44875)">
<path d="M18 9V4C18 2.896 17.103 2 16 2H8C6.897 2 6 2.896 6 4V9H4V15.414L8 19.414V22H16V19.414L20 15.414V9H18ZM8 4H16V9H8V4ZM18 14.586L14 18.586V20H10V18.586L6 14.586V11H18V14.586Z" fill="url(#paint0_linear_5242_44875)"/>
<path d="M11 5H9V8H11V5Z" fill="url(#paint1_linear_5242_44875)"/>
<path d="M15 5H13V8H15V5Z" fill="url(#paint2_linear_5242_44875)"/>
</g>
<defs>
<linearGradient id="paint0_linear_5242_44875" x1="4" y1="12" x2="20" y2="12" gradientUnits="userSpaceOnUse">
<stop stop-color="#EDA15C"/>
<stop offset="1" stop-color="#A85B08"/>
</linearGradient>
<linearGradient id="paint1_linear_5242_44875" x1="9" y1="6.5" x2="11" y2="6.5" gradientUnits="userSpaceOnUse">
<stop stop-color="#EDA15C"/>
<stop offset="1" stop-color="#A85B08"/>
</linearGradient>
<linearGradient id="paint2_linear_5242_44875" x1="13" y1="6.5" x2="15" y2="6.5" gradientUnits="userSpaceOnUse">
<stop stop-color="#EDA15C"/>
<stop offset="1" stop-color="#A85B08"/>
</linearGradient>
<clipPath id="clip0_5242_44875">
<rect width="24" height="24" fill="white"/>
</clipPath>
</defs>
</svg>
